<svg id="Component_3_17" data-name="Component 3 – 17" xmlns="http://www.w3.org/2000/svg" width="31.629" height="30.363" viewBox="0 0 31.629 30.363">
  <path id="Path_93" data-name="Path 93" d="M5.105,9.7c.251-.078.572-.247.8-.03a.527.527,0,0,1-.026.88c-.256.144-.541.22-.806.341A6.871,6.871,0,0,0,1.168,16.08a7,7,0,0,0,.255,3.187.518.518,0,0,1-.618.648c-.295-.021-.4-.336-.478-.57A7.835,7.835,0,0,1,.6,14.1a7.951,7.951,0,0,1,4.5-4.4" transform="translate(0 -9.566)" fill="#fff"/>
  <path id="Path_94" data-name="Path 94" d="M28.439,14.929a1.887,1.887,0,0,1,2.2,1.29q3.184,9.607,6.368,19.215a1.9,1.9,0,0,1-1.208,2.4c-3.457,1.132-6.9,2.3-10.362,3.427a1.883,1.883,0,0,1-2.333-1.186Q20.06,30.9,17.024,21.728a7.96,7.96,0,0,1-.4-1.381,1.882,1.882,0,0,1,1.258-1.932c3.08-1.044,6.175-2.04,9.258-3.074.432-.135.855-.305,1.3-.412M26.713,17.02c-.112.361.2.754.007,1.107-.139.27-.473.317-.729.422-1.529.489-3.046,1.023-4.579,1.5-.587.156-.774-.5-.959-.9a1.838,1.838,0,0,0-.377.04,1.252,1.252,0,0,0,.829,1.352,1.678,1.678,0,0,0,1.171-.129c1.388-.486,2.791-.924,4.184-1.391a1.576,1.576,0,0,0,.846-.519,1.379,1.379,0,0,0,.02-1.472c-.132-.089-.3-.16-.413-.007m3.469,20.187a6.663,6.663,0,0,0-1.426.554.559.559,0,0,0,.168.4,22.716,22.716,0,0,0,2.281-.761c.016-.114.029-.229.037-.344-.356-.18-.715.055-1.06.146" transform="translate(-10.893 -13.048)" fill="#fff"/>
  <path id="Path_95" data-name="Path 95" d="M10.9,16.451a.592.592,0,0,1,.66.082.526.526,0,0,1-.113.852,7.072,7.072,0,0,0-1.21.615,4.206,4.206,0,0,0-1.8,3.727c0,.5.23.96.246,1.454a.541.541,0,0,1-.983.167,5.2,5.2,0,0,1-.317-2.493,5.286,5.286,0,0,1,3.517-4.4" transform="translate(-4.821 -14.038)" fill="#fff"/>
  <path id="Path_96" data-name="Path 96" d="M78.991,67.653a.562.562,0,0,1,.774.4,7.882,7.882,0,0,1-5.116,9.893.522.522,0,0,1-.617-.677c.059-.3.41-.365.649-.472a6.854,6.854,0,0,0,4.255-5.1,6.614,6.614,0,0,0-.185-3.266.585.585,0,0,1,.241-.777" transform="translate(-48.508 -47.604)" fill="#fff"/>
  <path id="Path_97" data-name="Path 97" d="M75.051,70.01a.543.543,0,0,1,.821.36,5.412,5.412,0,0,1-.6,4.618,5.271,5.271,0,0,1-2.834,2.135.545.545,0,0,1-.566-.867c.389-.28.879-.378,1.274-.654A4.216,4.216,0,0,0,74.914,71c-.083-.321-.237-.794.137-.992" transform="translate(-47.031 -49.126)" fill="#fff"/>
</svg>
