<svg xmlns="http://www.w3.org/2000/svg" width="16" height="13.091" viewBox="0 0 16 13.091">
  <g id="Glyph" transform="translate(-1 -3)">
    <path id="Path_201" data-name="Path 201" d="M1,11v3.636a3.636,3.636,0,0,0,3.636,3.636h8.727A3.636,3.636,0,0,0,17,14.636V11Zm12.364,4.364H10.455a.727.727,0,0,1,0-1.455h2.909a.727.727,0,0,1,0,1.455Z" transform="translate(0 -2.182)" fill="#707070"/>
    <path id="Path_202" data-name="Path 202" d="M17,7.364V6.636A3.636,3.636,0,0,0,13.364,3H4.636A3.636,3.636,0,0,0,1,6.636v.727Z" transform="translate(0)" fill="#707070"/>
  </g>
</svg>
