<svg xmlns="http://www.w3.org/2000/svg" width="10.515" height="5.268" viewBox="0 0 10.515 5.268">
  <g id="Group_799" data-name="Group 799" transform="translate(-0.001 -114.952)">
    <path id="Path_3736" data-name="Path 3736" d="M7.227,115.108a.527.527,0,0,0-.743-.006L2.6,118.943.908,117.195a.527.527,0,0,0-.76.73l0,0,2.06,2.135a.527.527,0,0,0,.374.158H2.59a.527.527,0,0,0,.369-.152l4.263-4.215A.527.527,0,0,0,7.227,115.108Z" fill="#e6fffc"/>
    <path id="Path_3737" data-name="Path 3737" d="M207.194,121.049a.527.527,0,0,0,.373.158h.006a.527.527,0,0,0,.369-.152l4.263-4.215a.527.527,0,0,0-.738-.749l-3.884,3.841-.139-.144a.527.527,0,0,0-.76.73l0,0Z" transform="translate(-201.823 -0.988)" fill="#e6fffc"/>
  </g>
</svg>
