<svg xmlns="http://www.w3.org/2000/svg" width="17.401" height="10.224" viewBox="0 0 17.401 10.224">
  <g id="Group_345" data-name="Group 345" transform="translate(0 -96.512)">
    <g id="Group_342" data-name="Group 342" transform="translate(0 96.512)">
      <g id="Group_341" data-name="Group 341" transform="translate(0 0)">
        <path id="Path_206" data-name="Path 206" d="M9.843,96.512H1.9a1.909,1.909,0,0,0-1.9,1.9v6.416a1.909,1.909,0,0,0,1.9,1.9H9.843a1.909,1.909,0,0,0,1.9-1.9V98.416A1.9,1.9,0,0,0,9.843,96.512Z" transform="translate(0 -96.512)" fill="#23c72a"/>
      </g>
    </g>
    <g id="Group_344" data-name="Group 344" transform="translate(12.698 97.528)">
      <g id="Group_343" data-name="Group 343" transform="translate(0 0)">
        <path id="Path_207" data-name="Path 207" d="M344.8,123.878a.97.97,0,0,0-.324.133l-2.97,1.713v4.417l2.989,1.713a1.132,1.132,0,0,0,1.561-.419,1.163,1.163,0,0,0,.152-.571v-5.883A1.146,1.146,0,0,0,344.8,123.878Z" transform="translate(-341.504 -123.847)" fill="#23c72a"/>
      </g>
    </g>
  </g>
</svg>
