<svg xmlns="http://www.w3.org/2000/svg" width="24.076" height="14.145" viewBox="0 0 24.076 14.145">
  <g id="Group_793" data-name="Group 793" transform="translate(0 -96.512)">
    <g id="Group_318" data-name="Group 318" transform="translate(0 96.512)">
      <g id="Group_317" data-name="Group 317">
        <path id="Path_186" data-name="Path 186" d="M13.618,96.512H2.634A2.642,2.642,0,0,0,0,99.146v8.877a2.642,2.642,0,0,0,2.634,2.634H13.618a2.642,2.642,0,0,0,2.634-2.634V99.146A2.625,2.625,0,0,0,13.618,96.512Z" transform="translate(0 -96.512)" fill="#2f2f2f"/>
      </g>
    </g>
    <g id="Group_320" data-name="Group 320" transform="translate(17.569 97.918)">
      <g id="Group_319" data-name="Group 319" transform="translate(0 0)">
        <path id="Path_187" data-name="Path 187" d="M346.061,123.89a1.342,1.342,0,0,0-.448.184l-4.109,2.371v6.111l4.136,2.371a1.566,1.566,0,0,0,2.16-.579,1.609,1.609,0,0,0,.211-.79v-8.139A1.585,1.585,0,0,0,346.061,123.89Z" transform="translate(-341.504 -123.847)" fill="#2f2f2f"/>
      </g>
    </g>
  </g>
</svg>
