<svg xmlns="http://www.w3.org/2000/svg" width="25.269" height="21.998" viewBox="0 0 25.269 21.998">
  <g id="Group_475" data-name="Group 475" transform="translate(-9.642 -14.042)">
    <path id="Path_233" data-name="Path 233" d="M49.829,21.538v10.73a.538.538,0,0,1-.268.467.527.527,0,0,1-.268.07.541.541,0,0,1-.268-.07L45,30.417V23.389l4.024-2.318a.56.56,0,0,1,.537,0A.538.538,0,0,1,49.829,21.538Z" transform="translate(-15.343 -1.323)" fill="#fff"/>
    <path id="Path_263" data-name="Path 263" d="M1,9.646v9.862a2.55,2.55,0,0,0,2.532,2.539H16.154a2.511,2.511,0,0,0,1.814-.782L3.818,7.113A3.01,3.01,0,0,0,1,9.646ZM19.688,17.2V9.646a2.545,2.545,0,0,0-2.532-2.532H9.6L5.722,3.238a.836.836,0,0,0-.6-.255.844.844,0,0,0-.586,1.452L24.809,24.713a.845.845,0,1,0,1.216-1.173Z" transform="translate(8.642 11.059)" fill="#fff"/>
  </g>
</svg>
