<svg xmlns="http://www.w3.org/2000/svg" width="50" height="50" viewBox="0 0 50 50">
  <g id="Group_907" data-name="Group 907" transform="translate(-402 -247)">
    <circle id="Ellipse_119" data-name="Ellipse 119" cx="25" cy="25" r="25" transform="translate(402 247)" fill="#eaf1fb"/>
    <g id="Group_863" data-name="Group 863" transform="translate(419.961 265)">
      <g id="Group_860" data-name="Group 860" transform="translate(0.039 4.719)">
        <g id="Group_859" data-name="Group 859" transform="translate(0)">
          <path id="Path_3775" data-name="Path 3775" d="M9,165.617a3.329,3.329,0,0,0-.575-.462,3.425,3.425,0,0,0-4.269.462L1.04,168.731a3.425,3.425,0,0,0,4.841,4.846l2.569-2.569a.245.245,0,0,0-.174-.418h-.1a4.117,4.117,0,0,1-1.566-.3.245.245,0,0,0-.267.054L4.5,172.19a1.469,1.469,0,0,1-2.077-2.077l3.124-3.121a1.468,1.468,0,0,1,2.074,0,1,1,0,0,0,1.375,0,.969.969,0,0,0,0-1.375Z" transform="translate(-0.039 -164.614)" fill="#17193f"/>
        </g>
      </g>
      <g id="Group_862" data-name="Group 862" transform="translate(5.47 0)">
        <g id="Group_861" data-name="Group 861" transform="translate(0 0)">
          <path id="Path_3776" data-name="Path 3776" d="M197.745,1A3.425,3.425,0,0,0,192.9,1l-2.566,2.564a.246.246,0,0,0,.179.418h.09a4.11,4.11,0,0,1,1.563.306.245.245,0,0,0,.267-.054l1.842-1.84a1.469,1.469,0,1,1,2.077,2.077l-2.295,2.292-.02.022-.8.8a1.468,1.468,0,0,1-2.074,0,1,1,0,0,0-1.375,0,.975.975,0,0,0,0,1.38,3.4,3.4,0,0,0,.979.685c.051.024.1.044.154.066s.105.039.157.059.105.037.157.051l.144.039c.1.024.2.044.3.061a3.4,3.4,0,0,0,.365.034h.186l.147-.017c.054,0,.11-.015.174-.015h.083l.169-.024.078-.015.142-.029h.027a3.424,3.424,0,0,0,1.588-.9l3.114-3.114A3.425,3.425,0,0,0,197.745,1Z" transform="translate(-189.502 0)" fill="#17193f"/>
        </g>
      </g>
    </g>
  </g>
</svg>
