<svg xmlns="http://www.w3.org/2000/svg" width="50" height="50" viewBox="0 0 50 50">
  <g id="Group_908" data-name="Group 908" transform="translate(-402 -390)">
    <circle id="Ellipse_120" data-name="Ellipse 120" cx="25" cy="25" r="25" transform="translate(402 390)" fill="#eaf1fb"/>
    <g id="_x31_15" transform="translate(413.894 400)">
      <g id="Group_885" data-name="Group 885" transform="translate(3.64 3)">
        <path id="Path_3796" data-name="Path 3796" d="M13.106,3A9.48,9.48,0,0,0,6.1,18.85l-.683,3.142a.837.837,0,0,0,1.217.908l2.975-1.625a9.338,9.338,0,0,0,3.5.667A9.471,9.471,0,0,0,13.106,3Zm.583,14.4a.832.832,0,0,1-1.175,0,.831.831,0,1,1,1.175-1.175A.827.827,0,0,1,13.69,17.4Zm.592-4.433a.485.485,0,0,0-.342.425V13.9a.833.833,0,1,1-1.667,0v-.508a2.137,2.137,0,0,1,1.4-1.975A1.568,1.568,0,1,0,11.54,9.95a.833.833,0,0,1-1.667,0,3.239,3.239,0,0,1,3.858-3.175A3.282,3.282,0,0,1,16.3,9.4,3.237,3.237,0,0,1,14.281,12.966Z" transform="translate(-3.64 -3)"/>
      </g>
    </g>
  </g>
</svg>
