<svg xmlns="http://www.w3.org/2000/svg" width="50" height="50" viewBox="0 0 50 50">
  <g id="Group_909" data-name="Group 909" transform="translate(-402 -390)">
    <circle id="Ellipse_120" data-name="Ellipse 120" cx="25" cy="25" r="25" transform="translate(402 390)" fill="#eaf1fb"/>
    <g id="Ikon" transform="translate(419 409.604)">
      <path id="Path_3797" data-name="Path 3797" d="M17.277,5.819V15.64a1.639,1.639,0,0,1-1.637,1.637H5.819a1.634,1.634,0,0,1-1.536-1.091h9.175a2.731,2.731,0,0,0,2.728-2.728V4.283a1.634,1.634,0,0,1,1.091,1.536ZM15.095,3.637v9.821a1.639,1.639,0,0,1-1.637,1.637H3.637A1.639,1.639,0,0,1,2,13.458V3.637A1.639,1.639,0,0,1,3.637,2h9.821a1.639,1.639,0,0,1,1.637,1.637Zm-2.728,4.91A.546.546,0,0,0,11.821,8H9.093V5.274A.546.546,0,1,0,8,5.274V8H5.274a.546.546,0,1,0,0,1.091H8v2.728a.546.546,0,1,0,1.091,0V9.093h2.728A.546.546,0,0,0,12.367,8.547Z" transform="translate(-2 -2)"/>
    </g>
  </g>
</svg>
