<svg xmlns="http://www.w3.org/2000/svg" width="30.355" height="17.184" viewBox="0 0 30.355 17.184">
  <g id="Group_864" data-name="Group 864" transform="translate(-1067.124 -424.766)">
    <path id="Icon_material-chat-bubble" data-name="Icon material-chat-bubble" d="M17.354,3H4.595A1.6,1.6,0,0,0,3,4.595V18.949l3.19-3.19H17.354a1.6,1.6,0,0,0,1.595-1.595V4.595A1.6,1.6,0,0,0,17.354,3Z" transform="translate(1064.124 423)" fill="#2f2f2f"/>
    <g id="Group_794" data-name="Group 794" transform="translate(996.998 424.766)">
      <path id="XMLID_225_" d="M107.807,139.288a.953.953,0,0,0-.953.953.953.953,0,0,0-1.906,0,.953.953,0,0,0-1.906,0v-4.288a.953.953,0,1,0-1.906,0v5.717h-.057l-.9-1.195a.861.861,0,0,0-1.216-.218.939.939,0,0,0-.319,1.2l2.093,4.662a1.429,1.429,0,0,0,1.278.79h5.31a1.429,1.429,0,0,0,1.429-1.429v-5.24A.953.953,0,0,0,107.807,139.288Z" transform="translate(-8.279 -130.712)" fill="#2f2f2f"/>
      <path id="XMLID_955_" d="M90.953,3.811a2.858,2.858,0,1,1,4.764,2.127V7.111a3.845,3.845,0,0,0,1.135-1,3.811,3.811,0,1,0-6.08,0,3.845,3.845,0,0,0,1.135,1V5.938a2.874,2.874,0,0,1-.953-2.127Z" fill="#2f2f2f"/>
      <path id="XMLID_958_" d="M153.254,60.555A1.893,1.893,0,0,0,151.91,60H151.9a1.9,1.9,0,0,0-1.757,2.618,1.917,1.917,0,0,1,.843-.95.967.967,0,0,1,.918-.715h0a.954.954,0,0,1,.923.716,1.917,1.917,0,0,1,.843.953,1.908,1.908,0,0,0-.422-2.066Z" transform="translate(-58.099 -58.094)" fill="#2f2f2f"/>
    </g>
  </g>
</svg>
