<svg xmlns="http://www.w3.org/2000/svg" xmlns:xlink="http://www.w3.org/1999/xlink" width="30.192" height="30.192" viewBox="0 0 30.192 30.192">
  <defs>
    <filter id="Path_93" x="0" y="0" width="30.192" height="30.192" filterUnits="userSpaceOnUse">
      <feOffset input="SourceAlpha"/>
      <feGaussianBlur stdDeviation="1" result="blur"/>
      <feFlood flood-opacity="0.416"/>
      <feComposite operator="in" in2="blur"/>
      <feComposite in="SourceGraphic"/>
    </filter>
  </defs>
  <g transform="matrix(1, 0, 0, 1, 0, 0)" filter="url(#Path_93)">
    <path id="Path_93-2" data-name="Path 93" d="M15.734,11.229a9.713,9.713,0,0,1-3.05-.486,1.394,1.394,0,0,0-1.356.286L9.4,12.481A10.63,10.63,0,0,1,4.625,7.7L6.034,5.829a1.383,1.383,0,0,0,.34-1.4,9.727,9.727,0,0,1-.488-3.055A1.374,1.374,0,0,0,4.514,0H1.373A1.374,1.374,0,0,0,0,1.373,15.752,15.752,0,0,0,15.734,17.107a1.374,1.374,0,0,0,1.373-1.373V12.6A1.374,1.374,0,0,0,15.734,11.229Z" transform="translate(27.19 15.1) rotate(135)" fill="#fff"/>
  </g>
</svg>
