<svg xmlns="http://www.w3.org/2000/svg" width="29.895" height="20.328" viewBox="0 0 29.895 20.328">
  <g id="credit-card" transform="translate(0 -81.92)">
    <g id="Group_83" data-name="Group 83" transform="translate(0 81.92)">
      <g id="Group_82" data-name="Group 82">
        <path id="Path_120" data-name="Path 120" d="M28.1,81.92H1.794A1.8,1.8,0,0,0,0,83.714v16.741a1.8,1.8,0,0,0,1.794,1.794H28.1a1.8,1.8,0,0,0,1.794-1.794V83.714A1.8,1.8,0,0,0,28.1,81.92Zm.6,18.535a.6.6,0,0,1-.6.6H1.794a.6.6,0,0,1-.6-.6V83.714a.6.6,0,0,1,.6-.6H28.1a.6.6,0,0,1,.6.6Z" transform="translate(0 -81.92)" fill="#707070"/>
      </g>
    </g>
    <g id="Group_85" data-name="Group 85" transform="translate(0.598 87.301)">
      <g id="Group_84" data-name="Group 84">
        <rect id="Rectangle_155" data-name="Rectangle 155" width="28.699" height="2.392" fill="#707070"/>
      </g>
    </g>
    <g id="Group_87" data-name="Group 87" transform="translate(0 86.703)">
      <g id="Group_86" data-name="Group 86">
        <path id="Path_121" data-name="Path 121" d="M29.3,163.84H.6a.6.6,0,0,0-.6.6v2.392a.6.6,0,0,0,.6.6H29.3a.6.6,0,0,0,.6-.6v-2.392A.6.6,0,0,0,29.3,163.84Zm-.6,2.392H1.2v-1.2H28.7Z" transform="translate(0 -163.84)" fill="#707070"/>
      </g>
    </g>
    <g id="Group_89" data-name="Group 89" transform="translate(4.783 93.878)">
      <g id="Group_88" data-name="Group 88">
        <path id="Path_122" data-name="Path 122" d="M93.28,286.72H82.518a.6.6,0,0,0,0,1.2H93.28a.6.6,0,0,0,0-1.2Z" transform="translate(-81.92 -286.72)" fill="#707070"/>
      </g>
    </g>
    <g id="Group_91" data-name="Group 91" transform="translate(4.783 96.269)">
      <g id="Group_90" data-name="Group 90">
        <path id="Path_123" data-name="Path 123" d="M88.5,327.68H82.518a.6.6,0,1,0,0,1.2H88.5a.6.6,0,1,0,0-1.2Z" transform="translate(-81.92 -327.68)" fill="#707070"/>
      </g>
    </g>
  </g>
</svg>
