<svg xmlns="http://www.w3.org/2000/svg" width="15.458" height="17.681" viewBox="0 0 15.458 17.681">
  <g id="Layer_2_00000060023533762576666680000013708961081672033712_" transform="translate(-32.236)">
    <g id="trash_xmark" transform="translate(32.236)">
      <path id="Path_179" data-name="Path 179" d="M64.9,123.8c0,.138.463,8.01.7,11.743a1.665,1.665,0,0,0,1.8,1.658h8.137a1.7,1.7,0,0,0,1.893-1.8c.193-3.191.663-10.973.7-11.609Zm9.377,7.858a1.141,1.141,0,0,1-1.613,1.613l-1.154-1.154-1.154,1.154a1.141,1.141,0,0,1-1.613-1.613l1.154-1.154-1.154-1.157a1.141,1.141,0,1,1,1.613-1.613l1.154,1.154,1.154-1.154a1.141,1.141,0,1,1,1.613,1.613l-1.154,1.157Z" transform="translate(-63.772 -119.524)"/>
      <path id="Path_180" data-name="Path 180" d="M46.572,1.136c-.936-.007-1.869-.014-2.8,0A1.247,1.247,0,0,0,42.531,0H37.4a1.241,1.241,0,0,0-1.236,1.14c-.96-.017-1.924-.01-2.884,0a.981.981,0,0,0-.991.729A1.052,1.052,0,0,0,33.34,3.274c2.214.007,4.424,0,6.635,0h6.59A1.009,1.009,0,0,0,47.694,2.21,1.009,1.009,0,0,0,46.572,1.136Z" transform="translate(-32.236)"/>
    </g>
  </g>
</svg>
