<svg xmlns="http://www.w3.org/2000/svg" width="11.278" height="12.406" viewBox="0 0 11.278 12.406">
  <g id="Glyph" transform="translate(-44)">
    <path id="Path_157" data-name="Path 157" d="M12.714,3.256H11.022V2.692A1.692,1.692,0,0,0,9.331,1H5.947A1.692,1.692,0,0,0,4.256,2.692v.564H2.564a.564.564,0,0,0,0,1.128H2.6L3,10.761a2.819,2.819,0,0,0,2.819,2.645H9.472a2.819,2.819,0,0,0,2.819-2.645l.389-6.378h.034a.564.564,0,0,0,0-1.128ZM5.383,2.692a.564.564,0,0,1,.564-.564H9.331a.564.564,0,0,1,.564.564v.564H5.383Zm1.692,7.331a.564.564,0,0,1-1.128,0V6.639a.564.564,0,1,1,1.128,0Zm2.256,0a.564.564,0,0,1-1.128,0V6.639a.564.564,0,1,1,1.128,0Z" transform="translate(42 -1)" fill="#ea0d0d"/>
  </g>
</svg>
