<svg id="Glyph" xmlns="http://www.w3.org/2000/svg" width="14.678" height="16.146" viewBox="0 0 14.678 16.146">
  <path id="Path_157" data-name="Path 157" d="M15.944,3.936h-2.2V3.2a2.2,2.2,0,0,0-2.2-2.2h-4.4a2.2,2.2,0,0,0-2.2,2.2v.734h-2.2a.734.734,0,1,0,0,1.468h.044L3.3,13.7a3.67,3.67,0,0,0,3.67,3.442h4.756a3.67,3.67,0,0,0,3.67-3.442L15.9,5.4h.044a.734.734,0,0,0,0-1.468ZM6.4,3.2a.734.734,0,0,1,.734-.734h4.4a.734.734,0,0,1,.734.734v.734H6.4Zm2.2,9.541a.734.734,0,0,1-1.468,0v-4.4a.734.734,0,0,1,1.468,0Zm2.936,0a.734.734,0,0,1-1.468,0v-4.4a.734.734,0,1,1,1.468,0Z" transform="translate(-2 -1)" fill="#f23c3c"/>
</svg>
