<svg id="Glyph" xmlns="http://www.w3.org/2000/svg" width="16.146" height="16.146" viewBox="0 0 16.146 16.146">
  <path id="Path_154" data-name="Path 154" d="M13.475,17.144H4.669A3.669,3.669,0,0,1,1,13.475V4.669A3.669,3.669,0,0,1,4.669,1h4.4a.734.734,0,1,1,0,1.468h-4.4a2.2,2.2,0,0,0-2.2,2.2v8.806a2.2,2.2,0,0,0,2.2,2.2h8.806a2.2,2.2,0,0,0,2.2-2.2v-4.4a.734.734,0,0,1,1.468,0v4.4a3.669,3.669,0,0,1-3.669,3.669Z" transform="translate(-1 -0.998)" fill="#17193f"/>
  <path id="Path_155" data-name="Path 155" d="M19.753,6.43l.631-.631a2.2,2.2,0,0,0,0-3.119L19.35,1.645a2.2,2.2,0,0,0-3.119,0l-.631.631Z" transform="translate(-4.886 -0.998)" fill="#17193f"/>
  <path id="Path_156" data-name="Path 156" d="M12.276,4.15,7.646,8.78A2.2,2.2,0,0,0,7,10.344v1.035a2.2,2.2,0,0,0,2.2,2.2h1.035a2.2,2.2,0,0,0,1.563-.646L16.43,8.3Z" transform="translate(-2.597 -1.837)" fill="#17193f"/>
</svg>
