<svg xmlns="http://www.w3.org/2000/svg" width="13.131" height="13.113" viewBox="0 0 13.131 13.113">
  <g id="Layer_2" data-name="Layer 2" transform="translate(-1.25 -1.248)">
    <path id="Path_3780" data-name="Path 3780" d="M8.206,5.42,1.922,11.7a1.453,1.453,0,0,0-.415.861l-.25,2.2a1.105,1.105,0,0,0,1.105,1.221H2.49l2.2-.25a1.478,1.478,0,0,0,.861-.409l6.284-6.29Z" transform="translate(0 -1.624)" fill="#fff"/>
    <path id="Path_3781" data-name="Path 3781" d="M18.805,3.265,17.211,1.671a1.435,1.435,0,0,0-2.034,0L13.7,3.149l3.628,3.628L18.805,5.3a1.435,1.435,0,0,0,0-2.034Z" transform="translate(-4.847)" fill="#fff"/>
  </g>
</svg>
