<svg id="Glyph" xmlns="http://www.w3.org/2000/svg" width="12.407" height="12.407" viewBox="0 0 12.407 12.407">
  <path id="Path_154" data-name="Path 154" d="M10.586,13.406H3.819A2.819,2.819,0,0,1,1,10.586V3.82A2.82,2.82,0,0,1,3.819,1H7.2a.564.564,0,0,1,0,1.128H3.819A1.692,1.692,0,0,0,2.128,3.82v6.767a1.692,1.692,0,0,0,1.692,1.692h6.767a1.692,1.692,0,0,0,1.692-1.692V7.2a.564.564,0,1,1,1.128,0v3.383a2.819,2.819,0,0,1-2.819,2.82Z" transform="translate(-1 -0.999)" fill="#17193f"/>
  <path id="Path_155" data-name="Path 155" d="M18.792,5.172l.485-.485a1.692,1.692,0,0,0,0-2.4l-.8-.8a1.692,1.692,0,0,0-2.4,0L15.6,1.98Z" transform="translate(-7.367 -0.998)" fill="#17193f"/>
  <path id="Path_156" data-name="Path 156" d="M11.054,4.15,7.5,7.708a1.692,1.692,0,0,0-.5,1.2v.8A1.692,1.692,0,0,0,8.692,11.4h.8a1.692,1.692,0,0,0,1.2-.5l3.558-3.558Z" transform="translate(-3.617 -2.372)" fill="#17193f"/>
</svg>
