<svg xmlns="http://www.w3.org/2000/svg" width="18" height="18" viewBox="0 0 18 18">
  <g id="Group_790" data-name="Group 790" transform="translate(-3 -3)">
    <path id="Path_3745" data-name="Path 3745" d="M10.707,13.293a1,1,0,0,1,0,1.414L6.414,19H9.143a1,1,0,0,1,0,2H4a1,1,0,0,1-1-1V14.857a1,1,0,1,1,2,0v2.729l4.293-4.293A1,1,0,0,1,10.707,13.293Z" fill-rule="evenodd"/>
    <path id="Path_3746" data-name="Path 3746" d="M14,4a1,1,0,0,1,1-1h5a1,1,0,0,1,1,1V9a1,1,0,0,1-2,0V6.414l-4.293,4.293a1,1,0,1,1-1.414-1.414L17.586,5H15A1,1,0,0,1,14,4Z" fill-rule="evenodd"/>
  </g>
</svg>
