<svg id="Group_741" data-name="Group 741" xmlns="http://www.w3.org/2000/svg" width="14.436" height="14.436" viewBox="0 0 14.436 14.436">
  <g id="Group_740" data-name="Group 740">
    <path id="Path_3685" data-name="Path 3685" d="M7.218,0a7.218,7.218,0,1,0,7.218,7.218A7.214,7.214,0,0,0,7.218,0Zm.741,10.083c0,.228-.333.456-.741.456-.428,0-.732-.228-.732-.456V6.463c0-.266.3-.447.732-.447.409,0,.741.181.741.447ZM7.218,5.143a.743.743,0,0,1-.779-.684.736.736,0,0,1,.779-.675.733.733,0,0,1,.77.675A.74.74,0,0,1,7.218,5.143Z" fill="#707070"/>
  </g>
</svg>
