<svg id="Group_876" data-name="Group 876" xmlns="http://www.w3.org/2000/svg" width="10.5" height="10.5" viewBox="0 0 10.5 10.5">
  <g id="Group_875" data-name="Group 875">
    <path id="Path_3779" data-name="Path 3779" d="M5.25,0A5.25,5.25,0,1,0,10.5,5.25,5.247,5.247,0,0,0,5.25,0Zm.539,7.334c0,.166-.242.332-.539.332s-.532-.166-.532-.332V4.7c0-.193.221-.325.532-.325s.539.131.539.325ZM5.25,3.741a.541.541,0,0,1-.567-.5.535.535,0,0,1,.567-.491.533.533,0,0,1,.56.491A.539.539,0,0,1,5.25,3.741Z"/>
  </g>
</svg>
