<svg xmlns="http://www.w3.org/2000/svg" width="37.502" height="36" viewBox="0 0 37.502 36">
  <g id="Group_281" data-name="Group 281" transform="translate(0 -0.153)">
    <g id="Group_721" data-name="Group 721" transform="translate(0 0.153)">
      <path id="Path_144" data-name="Path 144" d="M6.053.464c.3-.092.678-.292.95-.036a.625.625,0,0,1-.031,1.044c-.3.17-.641.261-.956.4A8.146,8.146,0,0,0,1.385,8.025a8.3,8.3,0,0,0,.3,3.778.614.614,0,0,1-.732.768c-.349-.025-.469-.4-.567-.675A9.29,9.29,0,0,1,.714,5.676,9.428,9.428,0,0,1,6.053.464" transform="translate(0 -0.302)" fill="#f6f8fc"/>
      <path id="Path_145" data-name="Path 145" d="M30.637,5.675A2.235,2.235,0,0,1,33.25,7.233q3.78,11.6,7.561,23.206a2.3,2.3,0,0,1-1.431,2.895C35.281,34.7,31.2,36.11,27.1,37.467a2.225,2.225,0,0,1-2.766-1.434Q20.71,24.96,17.106,13.88a9.758,9.758,0,0,1-.469-1.668,2.272,2.272,0,0,1,1.49-2.332C21.778,8.62,25.447,7.419,29.1,6.172c.512-.163,1.013-.368,1.536-.5M28.591,8.2c-.133.436.242.911.008,1.337-.165.327-.56.382-.864.509-1.812.589-3.61,1.233-5.427,1.808-.7.188-.918-.6-1.138-1.09a2.152,2.152,0,0,0-.447.049,1.515,1.515,0,0,0,.983,1.633,1.956,1.956,0,0,0,1.388-.155c1.646-.586,3.309-1.115,4.96-1.677a1.865,1.865,0,0,0,1-.627,1.693,1.693,0,0,0,.023-1.778c-.156-.108-.353-.193-.49-.009m4.124,24.379a7.788,7.788,0,0,0-1.69.668.68.68,0,0,0,.2.489,26.58,26.58,0,0,0,2.7-.918c.019-.138.034-.277.044-.415-.422-.217-.847.066-1.256.176" transform="translate(-9.833 -3.444)" fill="#f6f8fc"/>
      <path id="Path_146" data-name="Path 146" d="M11.556,7.2a.7.7,0,0,1,.783.1A.624.624,0,0,1,12.2,8.3a8.384,8.384,0,0,0-1.435.729,4.986,4.986,0,0,0-2.134,4.419c.006.589.272,1.138.291,1.724a.641.641,0,0,1-1.165.2,6.162,6.162,0,0,1-.376-2.956A6.267,6.267,0,0,1,11.556,7.2" transform="translate(-4.35 -4.338)" fill="#f6f8fc"/>
      <path id="Path_147" data-name="Path 147" d="M79.916,58.4a.666.666,0,0,1,.918.472A9.345,9.345,0,0,1,74.768,70.6a.619.619,0,0,1-.731-.8c.07-.361.486-.433.769-.559a8.126,8.126,0,0,0,5.045-6.046,7.842,7.842,0,0,0-.22-3.873.694.694,0,0,1,.286-.921" transform="translate(-43.774 -34.628)" fill="#f6f8fc"/>
      <path id="Path_148" data-name="Path 148" d="M75.663,60.763a.643.643,0,0,1,.974.426,6.417,6.417,0,0,1-.711,5.475,6.25,6.25,0,0,1-3.36,2.532.646.646,0,0,1-.671-1.027c.462-.332,1.042-.448,1.51-.776a5,5,0,0,0,2.1-5.453c-.1-.38-.281-.942.163-1.177" transform="translate(-42.441 -36.001)" fill="#f6f8fc"/>
    </g>
  </g>
</svg>
