<svg xmlns="http://www.w3.org/2000/svg" xmlns:xlink="http://www.w3.org/1999/xlink" width="68.841" height="13.902" viewBox="0 0 68.841 13.902">
  <defs>
    <clipPath id="clip-path">
      <rect id="Rectangle_155" data-name="Rectangle 155" width="68.841" height="13.902" fill="#919191"/>
    </clipPath>
  </defs>
  <g id="Group_252" data-name="Group 252" transform="translate(0 0)">
    <g id="Group_251" data-name="Group 251" transform="translate(0 0)" clip-path="url(#clip-path)">
      <path id="Path_103" data-name="Path 103" d="M106.19,6.521a1.723,1.723,0,0,1-.335.029.841.841,0,0,1-.512-.128.538.538,0,0,1-.167-.453V.079a1.283,1.283,0,0,1,.231-.054,2.147,2.147,0,0,1,.34-.025.841.841,0,0,1,.512.128.538.538,0,0,1,.168.453V3.635l1.911-1.9a.989.989,0,0,1,.6.167.508.508,0,0,1,.227.424.588.588,0,0,1-.143.394,3.941,3.941,0,0,1-.448.424l-1.064.926,1.881,1.763a.964.964,0,0,1-.207.537.606.606,0,0,1-.483.192.733.733,0,0,1-.4-.108,2.157,2.157,0,0,1-.419-.384l-1.458-1.615V6.472l-.236.049" transform="translate(-92.107 3.336)" fill="#919191"/>
      <path id="Path_104" data-name="Path 104" d="M141.134,12.005a1.006,1.006,0,0,0-.655-.2,1.914,1.914,0,0,0-.527.069,1.7,1.7,0,0,0-.418.177V15.62l-.236.049a1.723,1.723,0,0,1-.335.029.842.842,0,0,1-.512-.128.538.538,0,0,1-.167-.453V11.956a.68.68,0,0,1,.1-.384,1.075,1.075,0,0,1,.305-.286,2.56,2.56,0,0,1,.758-.33,3.843,3.843,0,0,1,1.044-.133,2.446,2.446,0,0,1,1.571.448,1.589,1.589,0,0,1,.557,1.315V15.62q-.079.019-.232.049a1.741,1.741,0,0,1-.33.029.838.838,0,0,1-.517-.128.547.547,0,0,1-.162-.453V12.626a.756.756,0,0,0-.241-.621" transform="translate(-120.092 -5.812)" fill="#919191"/>
      <path id="Path_105" data-name="Path 105" d="M177.744,13.3a2.9,2.9,0,0,1-.173,1.029,2.246,2.246,0,0,1-.488.783,2.1,2.1,0,0,1-.758.5,2.958,2.958,0,0,1-1.99,0,2.131,2.131,0,0,1-.758-.493,2.189,2.189,0,0,1-.488-.778,2.931,2.931,0,0,1-.172-1.039,2.9,2.9,0,0,1,.172-1.029,2.155,2.155,0,0,1,.492-.778,2.187,2.187,0,0,1,.764-.493,2.9,2.9,0,0,1,1.97,0,2.154,2.154,0,0,1,.763.5,2.209,2.209,0,0,1,.492.783,2.874,2.874,0,0,1,.173,1.02m-2.413-1.487a1.006,1.006,0,0,0-.837.389,1.741,1.741,0,0,0-.305,1.1,1.757,1.757,0,0,0,.3,1.1,1.11,1.11,0,0,0,1.684,0,1.762,1.762,0,0,0,.3-1.1,1.743,1.743,0,0,0-.305-1.1,1.007,1.007,0,0,0-.837-.389" transform="translate(-149.368 -5.812)" fill="#919191"/>
      <path id="Path_106" data-name="Path 106" d="M211.847,11.818a1.49,1.49,0,0,0-.547.1,1.221,1.221,0,0,0-.433.286,1.373,1.373,0,0,0-.291.463,1.743,1.743,0,0,0-.108.64,1.456,1.456,0,0,0,.384,1.1,1.376,1.376,0,0,0,1,.369,1.7,1.7,0,0,0,.6-.094,3.341,3.341,0,0,0,.448-.2.864.864,0,0,1,.222.227.53.53,0,0,1,.084.3.634.634,0,0,1-.394.552,2.215,2.215,0,0,1-1.064.217,3.306,3.306,0,0,1-1.029-.153,2.137,2.137,0,0,1-.8-.463,2.065,2.065,0,0,1-.517-.773,2.916,2.916,0,0,1-.182-1.074,2.788,2.788,0,0,1,.2-1.088,2.18,2.18,0,0,1,.537-.778,2.2,2.2,0,0,1,.793-.463,3,3,0,0,1,.965-.153,2.074,2.074,0,0,1,1.054.231.665.665,0,0,1,.394.567.511.511,0,0,1-.084.285.777.777,0,0,1-.192.207,3.7,3.7,0,0,0-.438-.2,1.627,1.627,0,0,0-.586-.093" transform="translate(-180.043 -5.812)" fill="#919191"/>
      <path id="Path_107" data-name="Path 107" d="M242.627,6.521a1.722,1.722,0,0,1-.335.029.841.841,0,0,1-.512-.128.537.537,0,0,1-.168-.453V.079a1.287,1.287,0,0,1,.232-.054,2.15,2.15,0,0,1,.34-.025.841.841,0,0,1,.512.128.538.538,0,0,1,.167.453V3.635l1.911-1.9a.989.989,0,0,1,.6.167.508.508,0,0,1,.227.424.589.589,0,0,1-.143.394,3.951,3.951,0,0,1-.448.424l-1.064.926,1.882,1.763a.966.966,0,0,1-.207.537.606.606,0,0,1-.483.192.733.733,0,0,1-.4-.108,2.154,2.154,0,0,1-.419-.384l-1.458-1.615V6.472l-.236.049" transform="translate(-207.435 3.336)" fill="#919191"/>
      <path id="Path_108" data-name="Path 108" d="M106.19,53.526a1.722,1.722,0,0,1-.335.03.841.841,0,0,1-.512-.128.538.538,0,0,1-.167-.453V47.084a1.268,1.268,0,0,1,.231-.054,2.147,2.147,0,0,1,.34-.025.841.841,0,0,1,.512.128.537.537,0,0,1,.168.453V50.64l1.911-1.9a.988.988,0,0,1,.6.167.508.508,0,0,1,.227.423.589.589,0,0,1-.143.394,3.929,3.929,0,0,1-.448.423l-1.064.926,1.881,1.763a.965.965,0,0,1-.207.537.606.606,0,0,1-.483.192.734.734,0,0,1-.4-.108,2.159,2.159,0,0,1-.419-.384l-1.458-1.615v2.019l-.236.049" transform="translate(-63.886 -43.347)" fill="#919191"/>
      <path id="Path_109" data-name="Path 109" d="M141.134,59.01a1.006,1.006,0,0,0-.655-.2,1.92,1.92,0,0,0-.527.069,1.7,1.7,0,0,0-.418.177v3.566l-.236.049a1.722,1.722,0,0,1-.335.03.842.842,0,0,1-.512-.128.538.538,0,0,1-.167-.453V58.961a.68.68,0,0,1,.1-.384,1.076,1.076,0,0,1,.305-.285,2.556,2.556,0,0,1,.758-.33,3.843,3.843,0,0,1,1.044-.133,2.445,2.445,0,0,1,1.571.448,1.589,1.589,0,0,1,.557,1.315v3.034q-.079.02-.232.049a1.741,1.741,0,0,1-.33.03.838.838,0,0,1-.517-.128.547.547,0,0,1-.162-.453V59.631a.756.756,0,0,0-.241-.621" transform="translate(-91.871 -52.496)" fill="#919191"/>
      <path id="Path_110" data-name="Path 110" d="M177.744,60.3a2.9,2.9,0,0,1-.173,1.03,2.247,2.247,0,0,1-.488.783,2.1,2.1,0,0,1-.758.5,2.958,2.958,0,0,1-1.99,0,2.132,2.132,0,0,1-.758-.492,2.19,2.19,0,0,1-.488-.778,2.931,2.931,0,0,1-.172-1.039,2.9,2.9,0,0,1,.172-1.029,2.156,2.156,0,0,1,.492-.778,2.187,2.187,0,0,1,.764-.493,2.9,2.9,0,0,1,1.97,0,2.154,2.154,0,0,1,.763.5,2.209,2.209,0,0,1,.492.783,2.874,2.874,0,0,1,.173,1.019m-2.413-1.487a1.006,1.006,0,0,0-.837.389,2.151,2.151,0,0,0,0,2.2,1.11,1.11,0,0,0,1.684,0,1.762,1.762,0,0,0,.3-1.1,1.742,1.742,0,0,0-.305-1.1,1.007,1.007,0,0,0-.837-.389" transform="translate(-121.147 -52.496)" fill="#919191"/>
      <path id="Path_111" data-name="Path 111" d="M211.847,58.823a1.487,1.487,0,0,0-.547.1,1.219,1.219,0,0,0-.433.286,1.371,1.371,0,0,0-.291.463,1.742,1.742,0,0,0-.108.64,1.456,1.456,0,0,0,.384,1.1,1.376,1.376,0,0,0,1,.369,1.705,1.705,0,0,0,.6-.094,3.38,3.38,0,0,0,.448-.2.861.861,0,0,1,.222.227.529.529,0,0,1,.084.3.635.635,0,0,1-.394.552,2.217,2.217,0,0,1-1.064.217,3.3,3.3,0,0,1-1.029-.153,2.137,2.137,0,0,1-.8-.463,2.065,2.065,0,0,1-.517-.773,2.917,2.917,0,0,1-.182-1.074,2.788,2.788,0,0,1,.2-1.088,2.144,2.144,0,0,1,1.33-1.241,3,3,0,0,1,.965-.153,2.075,2.075,0,0,1,1.054.231.665.665,0,0,1,.394.567.512.512,0,0,1-.084.286.782.782,0,0,1-.192.207,3.7,3.7,0,0,0-.438-.2,1.63,1.63,0,0,0-.586-.093" transform="translate(-151.822 -52.496)" fill="#919191"/>
      <path id="Path_112" data-name="Path 112" d="M242.627,53.526a1.721,1.721,0,0,1-.335.03.841.841,0,0,1-.512-.128.537.537,0,0,1-.168-.453V47.084a1.272,1.272,0,0,1,.232-.054,2.15,2.15,0,0,1,.34-.025.841.841,0,0,1,.512.128.538.538,0,0,1,.167.453V50.64l1.911-1.9a.988.988,0,0,1,.6.167.508.508,0,0,1,.227.423.589.589,0,0,1-.143.394,3.938,3.938,0,0,1-.448.423l-1.064.926,1.882,1.763a.966.966,0,0,1-.207.537.606.606,0,0,1-.483.192.734.734,0,0,1-.4-.108,2.157,2.157,0,0,1-.419-.384l-1.458-1.615v2.019l-.236.049" transform="translate(-179.214 -43.347)" fill="#919191"/>
      <path id="Path_113" data-name="Path 113" d="M1.186.334c.058-.018.133-.057.186-.007a.123.123,0,0,1-.006.2c-.059.033-.126.051-.187.079A1.6,1.6,0,0,0,.271,1.816a1.626,1.626,0,0,0,.059.741.12.12,0,0,1-.144.151C.119,2.7.1,2.629.076,2.575A1.821,1.821,0,0,1,.14,1.355,1.848,1.848,0,0,1,1.186.334" transform="translate(1.824 3.035)" fill="#919191"/>
      <path id="Path_114" data-name="Path 114" d="M19.366,5.626a.438.438,0,0,1,.512.3q.74,2.233,1.48,4.465a.441.441,0,0,1-.281.557c-.8.263-1.6.535-2.408.8a.437.437,0,0,1-.542-.276q-.708-2.131-1.414-4.263a1.85,1.85,0,0,1-.092-.321.437.437,0,0,1,.292-.449c.716-.243,1.435-.474,2.151-.714.1-.031.2-.071.3-.1m-.4.486c-.026.084.047.175,0,.257-.032.063-.11.074-.169.1-.355.114-.708.238-1.064.348-.137.036-.18-.115-.223-.21a.427.427,0,0,0-.088.009.291.291,0,0,0,.193.314.39.39,0,0,0,.272-.03c.323-.113.649-.215.972-.323a.366.366,0,0,0,.2-.121.32.32,0,0,0,0-.342c-.031-.021-.069-.037-.1,0m.806,4.691a1.548,1.548,0,0,0-.331.129.13.13,0,0,0,.039.094,5.279,5.279,0,0,0,.53-.177c0-.027.007-.053.009-.08-.083-.042-.166.013-.246.034" transform="translate(-13.464 -1.853)" fill="#919191"/>
      <path id="Path_115" data-name="Path 115" d="M8.178,7.14a.137.137,0,0,1,.153.019.122.122,0,0,1-.026.2,1.643,1.643,0,0,0-.281.143.977.977,0,0,0-.418.866c0,.116.053.223.057.338a.126.126,0,0,1-.228.039,1.208,1.208,0,0,1-.074-.579A1.228,1.228,0,0,1,8.178,7.14" transform="translate(-4.941 -3.242)" fill="#919191"/>
      <path id="Path_116" data-name="Path 116" d="M75.165,58.348a.131.131,0,0,1,.18.093,1.832,1.832,0,0,1-1.189,2.3.121.121,0,0,1-.143-.157c.014-.071.1-.085.151-.11a1.593,1.593,0,0,0,.989-1.185,1.537,1.537,0,0,0-.043-.759.136.136,0,0,1,.056-.181" transform="translate(-66.257 -50.352)" fill="#919191"/>
      <path id="Path_117" data-name="Path 117" d="M72.519,60.677a.126.126,0,0,1,.191.084,1.258,1.258,0,0,1-.139,1.073,1.225,1.225,0,0,1-.659.5.127.127,0,0,1-.131-.2c.09-.065.2-.088.3-.152a.98.98,0,0,0,.411-1.069c-.019-.075-.055-.185.032-.231" transform="translate(-64.183 -52.487)" fill="#919191"/>
    </g>
  </g>
</svg>
