<svg id="Component_20_3" data-name="Component 20 – 3" xmlns="http://www.w3.org/2000/svg" width="224.346" height="74.975" viewBox="0 0 224.346 74.975">
  <path id="Path_134" data-name="Path 134" d="M110.647,35.169a9.293,9.293,0,0,1-1.807.159,4.537,4.537,0,0,1-2.763-.69,2.9,2.9,0,0,1-.9-2.443V.424a6.921,6.921,0,0,1,1.248-.291A11.578,11.578,0,0,1,108.257,0a4.535,4.535,0,0,1,2.762.69,2.9,2.9,0,0,1,.9,2.443V19.6L122.228,9.35a5.331,5.331,0,0,1,3.241.9,2.74,2.74,0,0,1,1.222,2.285,3.172,3.172,0,0,1-.771,2.124,21.253,21.253,0,0,1-2.417,2.285l-5.738,4.993,10.147,9.51a5.2,5.2,0,0,1-1.116,2.9,3.267,3.267,0,0,1-2.6,1.036,3.954,3.954,0,0,1-2.151-.584,11.63,11.63,0,0,1-2.258-2.072l-7.862-8.712V34.9q-.478.105-1.275.265" transform="translate(-17.414)" fill="#fff"/>
  <path id="Path_135" data-name="Path 135" d="M153.662,17.2a5.425,5.425,0,0,0-3.533-1.062,10.32,10.32,0,0,0-2.843.372,9.138,9.138,0,0,0-2.257.955V36.7q-.478.105-1.275.266a9.287,9.287,0,0,1-1.807.159,4.539,4.539,0,0,1-2.763-.69,2.9,2.9,0,0,1-.9-2.444V16.933a3.667,3.667,0,0,1,.532-2.072,5.8,5.8,0,0,1,1.647-1.54,13.807,13.807,0,0,1,4.09-1.78,20.725,20.725,0,0,1,5.632-.718q5.471,0,8.473,2.417t3,7.093V36.7q-.427.105-1.249.266a9.39,9.39,0,0,1-1.78.159,4.52,4.52,0,0,1-2.789-.69,2.949,2.949,0,0,1-.876-2.444V20.545a4.075,4.075,0,0,0-1.3-3.347" transform="translate(-22.896 -1.792)" fill="#fff"/>
  <path id="Path_136" data-name="Path 136" d="M198.949,24.157a15.662,15.662,0,0,1-.93,5.551,12.113,12.113,0,0,1-2.629,4.223,11.336,11.336,0,0,1-4.09,2.684,15.952,15.952,0,0,1-10.732,0,11.492,11.492,0,0,1-4.09-2.657,11.806,11.806,0,0,1-2.63-4.2,15.807,15.807,0,0,1-.93-5.6,15.648,15.648,0,0,1,.93-5.551,11.622,11.622,0,0,1,2.656-4.2,11.794,11.794,0,0,1,4.118-2.657,15.645,15.645,0,0,1,10.625,0,11.612,11.612,0,0,1,4.117,2.683,11.916,11.916,0,0,1,2.656,4.223,15.5,15.5,0,0,1,.93,5.5m-13.016-8.022a5.426,5.426,0,0,0-4.515,2.1,9.388,9.388,0,0,0-1.647,5.924,9.478,9.478,0,0,0,1.62,5.949,5.988,5.988,0,0,0,9.084-.026,9.5,9.5,0,0,0,1.621-5.924,9.4,9.4,0,0,0-1.647-5.924,5.429,5.429,0,0,0-4.516-2.1" transform="translate(-28.63 -1.792)" fill="#fff"/>
  <path id="Path_137" data-name="Path 137" d="M223.445,16.189a8.037,8.037,0,0,0-2.95.531,6.586,6.586,0,0,0-2.337,1.54,7.4,7.4,0,0,0-1.567,2.5,9.4,9.4,0,0,0-.585,3.453q0,3.933,2.072,5.924a7.42,7.42,0,0,0,5.367,1.993,9.2,9.2,0,0,0,3.213-.506,18.04,18.04,0,0,0,2.416-1.089,4.663,4.663,0,0,1,1.2,1.222,2.857,2.857,0,0,1,.451,1.594,3.421,3.421,0,0,1-2.126,2.976,11.946,11.946,0,0,1-5.738,1.168,17.833,17.833,0,0,1-5.551-.823,11.527,11.527,0,0,1-4.33-2.5A11.143,11.143,0,0,1,210.189,30a15.727,15.727,0,0,1-.982-5.791,15.037,15.037,0,0,1,1.061-5.87,11.758,11.758,0,0,1,2.9-4.2,11.877,11.877,0,0,1,4.276-2.5,16.176,16.176,0,0,1,5.205-.824,11.184,11.184,0,0,1,5.684,1.248,3.588,3.588,0,0,1,2.125,3.056,2.757,2.757,0,0,1-.451,1.54,4.191,4.191,0,0,1-1.036,1.116,19.986,19.986,0,0,0-2.364-1.089,8.775,8.775,0,0,0-3.16-.5" transform="translate(-34.639 -1.792)" fill="#fff"/>
  <path id="Path_138" data-name="Path 138" d="M247.084,35.169a9.284,9.284,0,0,1-1.806.159,4.536,4.536,0,0,1-2.763-.69,2.9,2.9,0,0,1-.9-2.443V.424A6.939,6.939,0,0,1,242.86.133,11.6,11.6,0,0,1,244.694,0a4.536,4.536,0,0,1,2.762.69,2.9,2.9,0,0,1,.9,2.443V19.6L258.666,9.35a5.334,5.334,0,0,1,3.241.9,2.739,2.739,0,0,1,1.222,2.285,3.175,3.175,0,0,1-.77,2.124,21.346,21.346,0,0,1-2.418,2.285L254.2,21.94l10.147,9.51a5.213,5.213,0,0,1-1.116,2.9,3.268,3.268,0,0,1-2.6,1.036,3.954,3.954,0,0,1-2.151-.584,11.63,11.63,0,0,1-2.258-2.072l-7.863-8.712V34.9q-.478.105-1.275.265" transform="translate(-40.004)" fill="#fff"/>
  <path id="Path_139" data-name="Path 139" d="M110.647,82.174a9.289,9.289,0,0,1-1.807.159,4.537,4.537,0,0,1-2.763-.691,2.9,2.9,0,0,1-.9-2.443V47.43a6.838,6.838,0,0,1,1.248-.292,11.576,11.576,0,0,1,1.833-.133,4.534,4.534,0,0,1,2.762.691,2.9,2.9,0,0,1,.9,2.443V66.608l10.306-10.253a5.325,5.325,0,0,1,3.241.9,2.738,2.738,0,0,1,1.222,2.284,3.174,3.174,0,0,1-.771,2.125,21.186,21.186,0,0,1-2.417,2.284l-5.738,4.994,10.147,9.509a5.2,5.2,0,0,1-1.116,2.9,3.269,3.269,0,0,1-2.6,1.036,3.961,3.961,0,0,1-2.151-.584,11.639,11.639,0,0,1-2.258-2.073l-7.862-8.712V81.908q-.478.106-1.275.265" transform="translate(-17.414 -7.783)" fill="#fff"/>
  <path id="Path_140" data-name="Path 140" d="M153.662,64.2a5.425,5.425,0,0,0-3.533-1.062,10.352,10.352,0,0,0-2.843.371,9.17,9.17,0,0,0-2.257.956V83.7q-.478.106-1.275.266a9.283,9.283,0,0,1-1.807.159,4.539,4.539,0,0,1-2.763-.691,2.9,2.9,0,0,1-.9-2.444V63.939a3.669,3.669,0,0,1,.532-2.073,5.81,5.81,0,0,1,1.647-1.54,13.785,13.785,0,0,1,4.09-1.78,20.724,20.724,0,0,1,5.632-.718q5.471,0,8.473,2.418t3,7.092V83.7q-.427.106-1.249.266a9.387,9.387,0,0,1-1.78.159,4.519,4.519,0,0,1-2.789-.691,2.948,2.948,0,0,1-.876-2.444V67.551a4.075,4.075,0,0,0-1.3-3.347" transform="translate(-22.896 -9.575)" fill="#fff"/>
  <path id="Path_141" data-name="Path 141" d="M198.949,71.162a15.667,15.667,0,0,1-.93,5.552,12.12,12.12,0,0,1-2.629,4.223,11.334,11.334,0,0,1-4.09,2.683,15.951,15.951,0,0,1-10.732,0,11.5,11.5,0,0,1-4.09-2.656,11.81,11.81,0,0,1-2.63-4.2,15.807,15.807,0,0,1-.93-5.6,15.648,15.648,0,0,1,.93-5.551,11.629,11.629,0,0,1,2.656-4.2,11.794,11.794,0,0,1,4.118-2.657,15.645,15.645,0,0,1,10.625,0,11.614,11.614,0,0,1,4.117,2.684,11.916,11.916,0,0,1,2.656,4.223,15.5,15.5,0,0,1,.93,5.5m-13.016-8.021a5.426,5.426,0,0,0-4.515,2.1,9.385,9.385,0,0,0-1.647,5.923,9.481,9.481,0,0,0,1.62,5.95,5.987,5.987,0,0,0,9.084-.027,9.5,9.5,0,0,0,1.621-5.924,9.4,9.4,0,0,0-1.647-5.923,5.429,5.429,0,0,0-4.516-2.1" transform="translate(-28.63 -9.575)" fill="#fff"/>
  <path id="Path_142" data-name="Path 142" d="M223.445,63.194a8.02,8.02,0,0,0-2.95.532,6.574,6.574,0,0,0-2.337,1.54,7.391,7.391,0,0,0-1.567,2.5,9.4,9.4,0,0,0-.585,3.452q0,3.933,2.072,5.924a7.423,7.423,0,0,0,5.367,1.992,9.2,9.2,0,0,0,3.213-.5,18.252,18.252,0,0,0,2.416-1.089,4.65,4.65,0,0,1,1.2,1.222,2.853,2.853,0,0,1,.451,1.594,3.422,3.422,0,0,1-2.126,2.976,11.955,11.955,0,0,1-5.738,1.168,17.809,17.809,0,0,1-5.551-.824,11.527,11.527,0,0,1-4.33-2.5,11.14,11.14,0,0,1-2.789-4.17,15.732,15.732,0,0,1-.982-5.792,15.037,15.037,0,0,1,1.061-5.87,11.563,11.563,0,0,1,7.174-6.693,16.176,16.176,0,0,1,5.205-.824,11.193,11.193,0,0,1,5.684,1.248,3.588,3.588,0,0,1,2.125,3.056,2.759,2.759,0,0,1-.451,1.54,4.216,4.216,0,0,1-1.036,1.116A19.983,19.983,0,0,0,226.6,63.7a8.794,8.794,0,0,0-3.16-.5" transform="translate(-34.639 -9.575)" fill="#fff"/>
  <path id="Path_143" data-name="Path 143" d="M247.084,82.174a9.28,9.28,0,0,1-1.806.159,4.535,4.535,0,0,1-2.763-.691,2.9,2.9,0,0,1-.9-2.443V47.43a6.855,6.855,0,0,1,1.248-.292,11.594,11.594,0,0,1,1.834-.133,4.536,4.536,0,0,1,2.762.691,2.9,2.9,0,0,1,.9,2.443V66.608l10.307-10.253a5.329,5.329,0,0,1,3.241.9,2.738,2.738,0,0,1,1.222,2.284,3.177,3.177,0,0,1-.77,2.125,21.279,21.279,0,0,1-2.418,2.284L254.2,68.945l10.147,9.509a5.215,5.215,0,0,1-1.116,2.9,3.271,3.271,0,0,1-2.6,1.036,3.961,3.961,0,0,1-2.151-.584,11.64,11.64,0,0,1-2.258-2.073l-7.863-8.712V81.908q-.478.106-1.275.265" transform="translate(-40.004 -7.783)" fill="#fff"/>
  <path id="Path_144" data-name="Path 144" d="M12.365.632c.607-.189,1.384-.6,1.94-.073a1.277,1.277,0,0,1-.063,2.132c-.62.348-1.309.533-1.953.826a16.64,16.64,0,0,0-9.461,12.56A16.95,16.95,0,0,0,3.445,23.8a1.255,1.255,0,0,1-1.5,1.57c-.713-.052-.958-.814-1.157-1.379a18.975,18.975,0,0,1,.666-12.707A19.257,19.257,0,0,1,12.365.632" transform="translate(0 -0.05)" fill="#fff"/>
  <path id="Path_145" data-name="Path 145" d="M45.247,5.738a4.565,4.565,0,0,1,5.337,3.183q7.72,23.7,15.444,47.4A4.7,4.7,0,0,1,63.1,62.235c-8.372,2.789-16.714,5.671-25.091,8.442a4.545,4.545,0,0,1-5.65-2.929Q24.97,45.13,17.607,22.5a19.931,19.931,0,0,1-.959-3.408,4.642,4.642,0,0,1,3.043-4.763C27.151,11.755,34.646,9.3,42.11,6.753,43.156,6.42,44.179,6,45.247,5.738m-4.179,5.157c-.272.891.494,1.861.017,2.731-.336.668-1.145.781-1.765,1.04-3.7,1.2-7.375,2.519-11.086,3.693-1.422.384-1.875-1.225-2.324-2.227a4.395,4.395,0,0,0-.913.1,3.1,3.1,0,0,0,2.008,3.336,4,4,0,0,0,2.835-.316c3.362-1.2,6.759-2.277,10.132-3.426a3.809,3.809,0,0,0,2.049-1.28,3.457,3.457,0,0,0,.047-3.631c-.319-.22-.72-.395-1-.018m8.424,49.8a15.908,15.908,0,0,0-3.453,1.365,1.389,1.389,0,0,0,.407,1,54.294,54.294,0,0,0,5.522-1.876c.038-.281.069-.566.089-.848-.861-.444-1.731.135-2.566.36" transform="translate(-2.753 -0.93)" fill="#fff"/>
  <path id="Path_146" data-name="Path 146" d="M15.936,7.274a1.433,1.433,0,0,1,1.6.2,1.274,1.274,0,0,1-.275,2.063,17.125,17.125,0,0,0-2.931,1.489A10.185,10.185,0,0,0,9.971,20.05c.012,1.2.557,2.325.595,3.52a1.31,1.31,0,0,1-2.38.4,12.586,12.586,0,0,1-.769-6.037A12.8,12.8,0,0,1,15.936,7.274" transform="translate(-1.218 -1.18)" fill="#fff"/>
  <path id="Path_147" data-name="Path 147" d="M86.079,58.467a1.361,1.361,0,0,1,1.874.965A19.088,19.088,0,0,1,75.561,83.39a1.264,1.264,0,0,1-1.494-1.64c.144-.738.993-.884,1.571-1.142a16.6,16.6,0,0,0,10.3-12.35,16.017,16.017,0,0,0-.449-7.91,1.417,1.417,0,0,1,.584-1.882" transform="translate(-12.253 -9.659)" fill="#fff"/>
  <path id="Path_148" data-name="Path 148" d="M79.741,60.875a1.314,1.314,0,0,1,1.989.871,13.107,13.107,0,0,1-1.452,11.183A12.765,12.765,0,0,1,73.414,78.1a1.319,1.319,0,0,1-1.37-2.1c.943-.678,2.128-.915,3.085-1.585a10.21,10.21,0,0,0,4.28-11.139c-.2-.777-.574-1.923.332-2.4" transform="translate(-11.88 -10.043)" fill="#fff"/>
</svg>
