<svg xmlns="http://www.w3.org/2000/svg" width="16" height="19.559" viewBox="0 0 16 19.559">
  <g id="Glyph" transform="translate(-3 -0.99)">
    <path id="Path_200" data-name="Path 200" d="M17.032,3.9A7.669,7.669,0,0,0,11.371,1,7.891,7.891,0,0,0,5.506,3.221,8.069,8.069,0,0,0,3,9.112c0,6.025,4.585,9.66,6.558,11a2.586,2.586,0,0,0,1.44.435,2.666,2.666,0,0,0,1.475-.444c2.079-1.333,5.634-4.337,6.4-9.118A8.887,8.887,0,0,0,17.032,3.9ZM11,11.663A2.666,2.666,0,1,1,13.664,9,2.666,2.666,0,0,1,11,11.663Z" transform="translate(0 0)" fill="#707070"/>
  </g>
</svg>
