<svg xmlns="http://www.w3.org/2000/svg" width="13.351" height="18.206" viewBox="0 0 13.351 18.206">
  <path id="Path_3802" data-name="Path 3802" d="M12.282,16.748v1.244H13.5a.607.607,0,0,1,0,1.214H9.855a.607.607,0,0,1,0-1.214h1.214V16.748A6.682,6.682,0,0,1,5,10.1a.607.607,0,1,1,1.214,0,5.462,5.462,0,1,0,10.924,0,.607.607,0,1,1,1.214,0A6.682,6.682,0,0,1,12.282,16.748ZM9.855,10.1H7.427a4.248,4.248,0,1,0,8.5,0H13.5a.607.607,0,0,1,0-1.214h2.427V6.462H13.5a.607.607,0,0,1,0-1.214h2.427a4.248,4.248,0,1,0-8.5,0H9.855a.607.607,0,0,1,0,1.214H7.427V8.889H9.855a.607.607,0,0,1,0,1.214Z" transform="translate(-5 -1)" fill="#fff"/>
</svg>
