<svg xmlns="http://www.w3.org/2000/svg" width="7.435" height="10.224" viewBox="0 0 7.435 10.224">
  <g id="Glyph" transform="translate(-4 -1)">
    <path id="Path_198" data-name="Path 198" d="M10.971,9a.465.465,0,0,0-.465.465v.465a2.788,2.788,0,1,1-5.577,0V9.465a.465.465,0,0,0-.929,0v.465a3.718,3.718,0,0,0,3.253,3.685v.962H6.788a.465.465,0,0,0,0,.929H8.647a.465.465,0,0,0,0-.929H8.182v-.962a3.718,3.718,0,0,0,3.253-3.685V9.465A.465.465,0,0,0,10.971,9Z" transform="translate(0 -4.282)" fill="#23c72a"/>
    <path id="Path_199" data-name="Path 199" d="M9.859,7.506a1.859,1.859,0,0,0,1.859-1.859V2.859A1.859,1.859,0,0,0,8,2.859V5.647A1.859,1.859,0,0,0,9.859,7.506Z" transform="translate(-2.141 0)" fill="#23c72a"/>
  </g>
</svg>
