<svg id="Mic_On" data-name="Mic On" xmlns="http://www.w3.org/2000/svg" width="10.436" height="16.671" viewBox="0 0 10.436 16.671">
  <path id="Path_234" data-name="Path 234" d="M17.218,4.255V9.894a2.452,2.452,0,0,1-2.609,2.255A2.452,2.452,0,0,1,12,9.894V4.255A2.452,2.452,0,0,1,14.609,2,2.452,2.452,0,0,1,17.218,4.255Z" transform="translate(-9.391 -2)" fill="#fff"/>
  <path id="Path_235" data-name="Path 235" d="M13.87,20.135v2.648h2.609a.652.652,0,1,1,0,1.3H9.957a.652.652,0,0,1,0-1.3h2.609V20.135A4.832,4.832,0,0,1,8,15.609V13.652a.652.652,0,1,1,1.3,0v1.957c0,1.8,1.755,3.261,3.913,3.261s3.913-1.461,3.913-3.261V13.652a.652.652,0,1,1,1.3,0v1.957A4.832,4.832,0,0,1,13.87,20.135Z" transform="translate(-8 -7.417)" fill="#fff"/>
</svg>
