<svg id="_x33_3-mute" xmlns="http://www.w3.org/2000/svg" width="16.003" height="16.001" viewBox="0 0 16.003 16.001">
  <path id="Path_214" data-name="Path 214" d="M16.844,1.153a.538.538,0,0,0-.757,0L14.642,2.6,12.721,4.519a3.585,3.585,0,0,0-.277-1.227,3.734,3.734,0,0,0-7.179,1.44H7.4A.533.533,0,1,1,7.4,5.8H5.265V7.932H7.4a.546.546,0,0,1,.309.1.556.556,0,0,1,.224.437A.535.535,0,0,1,7.4,9H5.265a3.6,3.6,0,0,0,.219,1.253,3.4,3.4,0,0,0,.528.976l-.763.763a4.721,4.721,0,0,1-.581-.923A4.807,4.807,0,0,1,4.2,9,.533.533,0,0,0,3.132,9a5.839,5.839,0,0,0,.747,2.859,5.623,5.623,0,0,0,.613.891L1.153,16.087a.538.538,0,0,0,0,.757.541.541,0,0,0,.757,0l3.339-3.339.757-.757.763-.763L10.1,8.652l.72-.72,1.909-1.909,2.976-2.976,1.136-1.136A.538.538,0,0,0,16.844,1.153ZM10.6,5.8a.556.556,0,0,1-.437-.224.546.546,0,0,1-.1-.309.535.535,0,0,1,.533-.533h1.909L11.441,5.8ZM14.865,9a5.872,5.872,0,0,1-5.333,5.84v1.093H10.6A.533.533,0,0,1,10.6,17H7.4a.533.533,0,0,1,0-1.067H8.465V14.839a5.761,5.761,0,0,1-2.325-.72l.789-.789A4.8,4.8,0,0,0,13.8,9a.533.533,0,0,1,1.067,0ZM11.26,9h1.472A3.737,3.737,0,0,1,9,12.732a3.6,3.6,0,0,1-1.253-.219Zm1.472-1.067h-.405l.405-.405Z" transform="translate(-0.997 -0.997)" fill="#fff"/>
</svg>
