<svg xmlns="http://www.w3.org/2000/svg" width="17.703" height="16.898" viewBox="0 0 17.703 16.898">
  <path id="Path_3686" data-name="Path 3686" d="M4.219,2.8a.8.8,0,0,1,.8-.8H8.242a.8.8,0,1,1,0,1.609H6.966L9,5.641a1.144,1.144,0,0,0,1.707,0l2.6-2.6a.8.8,0,1,1,1.138,1.138l-2.6,2.6a2.75,2.75,0,0,1-3.983,0L5.828,4.747V6.023a.8.8,0,0,1-1.609,0ZM13.07,14.053l-.34-.172a6.373,6.373,0,0,0-5.758,0l-.34.172v1.977a1.633,1.633,0,0,1-.717,1.354L4.058,18.638a1.521,1.521,0,0,1-1.935-.194A3.9,3.9,0,0,1,1,15.7v-.535a4.088,4.088,0,0,1,1.476-3.149l.242-.2a11.167,11.167,0,0,1,14.268,0l.242.2A4.087,4.087,0,0,1,18.7,15.168V15.7a3.9,3.9,0,0,1-1.123,2.742,1.521,1.521,0,0,1-1.935.194l-1.858-1.253a1.633,1.633,0,0,1-.717-1.354Z" transform="translate(-1 -2)" fill="#707070" fill-rule="evenodd"/>
</svg>
