<svg xmlns="http://www.w3.org/2000/svg" xmlns:xlink="http://www.w3.org/1999/xlink" width="94.087" height="141.252" viewBox="0 0 94.087 141.252">
  <defs>
    <clipPath id="clip-path">
      <rect id="Rectangle_219" data-name="Rectangle 219" width="94.087" height="141.252" fill="none"/>
    </clipPath>
  </defs>
  <g id="Group_303" data-name="Group 303" transform="translate(-574 -375)" opacity="0.045">
    <g id="Group_302" data-name="Group 302" transform="translate(574 375)">
      <g id="Group_301" data-name="Group 301" transform="translate(0 0)" clip-path="url(#clip-path)">
        <path id="Path_158" data-name="Path 158" d="M69.569,1.858C72.987.8,77.358-1.5,80.485,1.45c4.24,2.545,4.024,9.7-.352,12-3.488,1.958-7.366,3-10.986,4.648C41.029,30.7,20.385,58.306,15.916,88.762c-2.488,14.5-.746,29.4,3.47,43.423,1.836,4.967-3.437,10.254-8.418,8.831-4.014-.291-5.39-4.578-6.512-7.761A106.766,106.766,0,0,1,8.2,61.756a108.351,108.351,0,0,1,61.368-59.9" transform="translate(0 0.001)"/>
        <path id="Path_159" data-name="Path 159" d="M55.639,7.657c2.911-1.08,6.728-1.479,9,1.113,3.455,3.146,2.991,9.719-1.545,11.606C57.55,23.071,51.587,25.01,46.6,28.751c-16.385,11.047-25.94,31.1-24.526,50.79.066,6.775,3.132,13.08,3.347,19.808-1.038,6.108-10.507,8.047-13.39,2.277-4.657-10.6-5.211-22.559-4.324-33.968,2.582-27.076,22.207-51.334,47.931-60" transform="translate(27.175 25.212)"/>
      </g>
    </g>
  </g>
</svg>
