<svg id="Phone" xmlns="http://www.w3.org/2000/svg" width="22" height="22" viewBox="0 0 22 22">
  <path id="Path_214" data-name="Path 214" d="M19.59,13.982l-4.583-1.833a.924.924,0,0,0-1.045.265L12.1,14.653A13.778,13.778,0,0,1,7.514,10.07L9.753,8.2a.916.916,0,0,0,.265-1.045L8.185,2.577A.917.917,0,0,0,7.333,2H.917A.916.916,0,0,0,0,2.917a19.272,19.272,0,0,0,19.25,19.25.916.916,0,0,0,.917-.917V14.833a.917.917,0,0,0-.576-.851Z" transform="translate(0 -0.167)" fill="#17193f"/>
  <path id="Path_215" data-name="Path 215" d="M13.917,7.833A1.836,1.836,0,0,1,15.75,9.667a.917.917,0,0,0,1.833,0A3.67,3.67,0,0,0,13.917,6a.917.917,0,1,0,0,1.833Z" transform="translate(-1.083 -0.5)" fill="#17193f"/>
  <path id="Path_216" data-name="Path 216" d="M13.917,4.833A4.589,4.589,0,0,1,18.5,9.417a.917.917,0,1,0,1.833,0A6.424,6.424,0,0,0,13.917,3a.917.917,0,1,0,0,1.833Z" transform="translate(-1.083 -0.25)" fill="#17193f"/>
  <path id="Path_217" data-name="Path 217" d="M13.917,0a.917.917,0,1,0,0,1.833A7.342,7.342,0,0,1,21.25,9.167a.917.917,0,0,0,1.833,0A9.177,9.177,0,0,0,13.917,0Z" transform="translate(-1.083)" fill="#17193f"/>
</svg>
