<svg id="Group_706" data-name="Group 706" xmlns="http://www.w3.org/2000/svg" width="16.293" height="13.769" viewBox="0 0 16.293 13.769">
  <g id="Group_705" data-name="Group 705" transform="translate(0)">
    <path id="Path_3676" data-name="Path 3676" d="M4.835,47.548a.4.4,0,0,0-.3-.664H3.5c-.007-.1-.01-.2-.01-.308a4.651,4.651,0,0,1,7.843-3.386l1.452-1.7A6.884,6.884,0,0,0,1.261,46.576c0,.1,0,.206.007.308H.4a.4.4,0,0,0-.3.664l1.957,2.245.411.471,1.476-1.693Z" transform="translate(0.001 -39.691)"/>
    <path id="Path_3677" data-name="Path 3677" d="M133.308,162.9l-1.46-1.674-.908-1.042-1.3,1.488-1.071,1.229a.4.4,0,0,0,.3.664H129.9a4.651,4.651,0,0,1-7.49,3.351l-1.452,1.7a6.885,6.885,0,0,0,11.178-5.05h.868A.4.4,0,0,0,133.308,162.9Z" transform="translate(-117.114 -156.354)"/>
  </g>
</svg>
