<svg xmlns="http://www.w3.org/2000/svg" xmlns:xlink="http://www.w3.org/1999/xlink" width="81.255" height="86.65" viewBox="0 0 81.255 86.65">
  <defs>
    <filter id="_5a7623c27b2380e43a4c2a40c3dfcbbf" x="0" y="0" width="81.255" height="81.255" filterUnits="userSpaceOnUse">
      <feOffset dy="3" input="SourceAlpha"/>
      <feGaussianBlur stdDeviation="5.5" result="blur"/>
      <feFlood flood-opacity="0.161"/>
      <feComposite operator="in" in2="blur"/>
      <feComposite in="SourceGraphic"/>
    </filter>
    <filter id="Rectangle_152" x="10.164" y="60" width="60.255" height="26.65" filterUnits="userSpaceOnUse">
      <feOffset dy="3" input="SourceAlpha"/>
      <feGaussianBlur stdDeviation="2" result="blur-2"/>
      <feFlood flood-opacity="0.161"/>
      <feComposite operator="in" in2="blur-2"/>
      <feComposite in="SourceGraphic"/>
    </filter>
  </defs>
  <g id="Group_728" data-name="Group 728" transform="translate(-494.836 -339)">
    <g id="Group_590" data-name="Group 590" transform="translate(511.336 352.5)">
      <g transform="matrix(1, 0, 0, 1, -16.5, -13.5)" filter="url(#_5a7623c27b2380e43a4c2a40c3dfcbbf)">
        <g id="_5a7623c27b2380e43a4c2a40c3dfcbbf-2" data-name="5a7623c27b2380e43a4c2a40c3dfcbbf" transform="translate(16.5 13.5)" fill="#374ea1" stroke="#ff2d2e" stroke-width="1">
          <ellipse cx="24.127" cy="24.127" rx="24.127" ry="24.127" stroke="none"/>
          <ellipse cx="24.127" cy="24.127" rx="23.627" ry="23.627" fill="none"/>
        </g>
      </g>
      <path id="Path_283" data-name="Path 283" d="M0,0H17.716V6.527H0Z" transform="translate(15.352 37.179)" fill="#ff2d2e"/>
      <g id="Group_589" data-name="Group 589" transform="translate(17.184 38.4)">
        <path id="Path_276" data-name="Path 276" d="M208.24,86.06a.526.526,0,1,1,0-.742A.527.527,0,0,1,208.24,86.06Zm0,0" transform="translate(-205.274 -83.666)" fill="#fff"/>
        <path id="Path_277" data-name="Path 277" d="M292.054,47.833a.25.25,0,0,1-.177-.427,1.045,1.045,0,0,0,0-1.48.25.25,0,1,1,.353-.354,1.545,1.545,0,0,1,0,2.187A.249.249,0,0,1,292.054,47.833Zm0,0" transform="translate(-288.37 -44.643)" fill="#fff"/>
        <path id="Path_278" data-name="Path 278" d="M327.007,3.809a.25.25,0,0,1-.177-.427,2.084,2.084,0,0,0,0-2.952.25.25,0,1,1,.353-.354,2.584,2.584,0,0,1,0,3.66A.249.249,0,0,1,327.007,3.809Zm0,0" transform="translate(-322.757 0.117)" fill="#fff"/>
        <path id="Path_279" data-name="Path 279" d="M134.033,47.831a.249.249,0,0,1-.177-.073,1.545,1.545,0,0,1,0-2.187.25.25,0,0,1,.353.354,1.045,1.045,0,0,0,0,1.48.25.25,0,0,1-.177.427Zm0,0" transform="translate(-132.531 -44.641)" fill="#fff"/>
        <path id="Path_280" data-name="Path 280" d="M80.5,3.807a.249.249,0,0,1-.177-.073,2.584,2.584,0,0,1,0-3.66.25.25,0,0,1,.353.354,2.084,2.084,0,0,0,0,2.952.25.25,0,0,1-.177.427Zm0,0" transform="translate(-79.566 0.119)" fill="#fff"/>
        <path id="Path_281" data-name="Path 281" d="M7.175,261.938H.585a.585.585,0,0,0-.585.585V265.4a.585.585,0,0,0,.585.585h6.59a.585.585,0,0,0,.585-.585v-2.876A.585.585,0,0,0,7.175,261.938Zm-5.252,3.3H1a.25.25,0,0,1-.25-.25v-2.045a.25.25,0,0,1,.5,0v1.8h.671a.25.25,0,0,1,0,.5Zm1.025-.25a.25.25,0,0,1-.5,0v-2.045a.25.25,0,0,1,.5,0Zm2.1-1.973-.617,2.045h0a.253.253,0,0,1-.478,0h0l-.617-2.045a.25.25,0,1,1,.479-.145l.378,1.252.378-1.252a.25.25,0,1,1,.479.145Zm1.538.571a.25.25,0,0,1,0,.5H5.88v.651h.844a.25.25,0,0,1,0,.5H5.63a.25.25,0,0,1-.25-.25v-2.045a.25.25,0,0,1,.25-.25H6.758a.25.25,0,1,1,0,.5H5.88v.394Zm0,0" transform="translate(6.026 -261.938)" fill="#fff"/>
      </g>
    </g>
    <g id="Group_586" data-name="Group 586" transform="translate(511.336 402.329)">
      <g id="Component_60_5" data-name="Component 60 – 5" transform="translate(-0.336 -0.329)">
        <g transform="matrix(1, 0, 0, 1, -16.16, -63)" filter="url(#Rectangle_152)">
          <rect id="Rectangle_152-2" data-name="Rectangle 152" width="48.255" height="14.65" rx="7.325" transform="translate(16.16 63)" fill="#374ea1"/>
        </g>
        <text id="Start_Vidoe_Call" data-name="Start Vidoe Call" transform="translate(24 9)" fill="#fff" font-size="4" font-family="SegoeUI, Segoe UI"><tspan x="-13.509" y="0">Start Vidoe Call</tspan></text>
      </g>
    </g>
  </g>
</svg>
