<svg xmlns="http://www.w3.org/2000/svg" width="18.302" height="17.799" viewBox="0 0 18.302 17.799">
  <g id="Glyph" transform="translate(-1.25 -1.25)">
    <path id="Path_3769" data-name="Path 3769" d="M19.551,9.124v1.7a2.341,2.341,0,0,1-1.277,2.128V7.038A2.341,2.341,0,0,1,19.551,9.124Zm-18.3,0v1.7a2.341,2.341,0,0,0,1.277,2.128V7.038A2.341,2.341,0,0,0,1.25,9.124ZM17,7v7.661A2.341,2.341,0,0,1,14.657,17H10.469L8.4,18.785a1.056,1.056,0,0,1-.689.264,1.022,1.022,0,0,1-.443-.136,1.047,1.047,0,0,1-.621-.962V17h-.5A2.341,2.341,0,0,1,3.8,14.657V7A2.341,2.341,0,0,1,6.145,4.655h6.171V1.888a.638.638,0,1,1,1.277,0V4.655h1.064A2.341,2.341,0,0,1,17,7Zm-3.4,5.533a.647.647,0,0,0-.638-.638H7.847a.638.638,0,1,0,0,1.277h5.107a.647.647,0,0,0,.638-.638Zm0-3.4a.647.647,0,0,0-.638-.638H7.847a.638.638,0,1,0,0,1.277h5.107a.647.647,0,0,0,.638-.638Z" transform="translate(0 0)" fill="#2f2f2f"/>
  </g>
</svg>
