<svg xmlns="http://www.w3.org/2000/svg" width="24.98" height="26.594" viewBox="0 0 24.98 26.594">
  <g id="Path_3765" data-name="Path 3765" transform="translate(-1 0)" fill="none" stroke-linecap="round" stroke-linejoin="round">
    <path d="M23.98,4.421V22.173a2.423,2.423,0,0,1-2.421,2.421H11.876V2h9.683A2.423,2.423,0,0,1,23.98,4.421ZM5.421,2h4.842V24.594H5.421A2.423,2.423,0,0,1,3,22.173V4.421A2.423,2.423,0,0,1,5.421,2Zm1.85,8.306L4.85,12.726a.807.807,0,0,0,0,1.141l2.421,2.421a.807.807,0,1,0,1.141-1.141L6.562,13.3l1.85-1.85a.807.807,0,1,0-1.141-1.141Z" stroke="none"/>
    <path d="M 5.420755386352539 2.000003814697266 C 4.085874557495117 2.000003814697266 2.999994277954102 3.085874557495117 2.999994277954102 4.420753479003906 L 2.999994277954102 22.17299461364746 C 2.999994277954102 23.50787353515625 4.085874557495117 24.5937442779541 5.420755386352539 24.5937442779541 L 10.26227569580078 24.5937442779541 L 10.26227569580078 2.000003814697266 L 5.420755386352539 2.000003814697266 M 7.841514587402344 16.52455520629883 C 7.635055541992188 16.52455520629883 7.428604125976562 16.44575500488281 7.270994186401367 16.28815460205078 L 4.850244522094727 13.86739444732666 C 4.5350341796875 13.5521936416626 4.5350341796875 13.04156398773193 4.850244522094727 12.72635364532471 L 7.270994186401367 10.30559349060059 C 7.586206436157227 9.990396499633789 8.096834182739258 9.990396499633789 8.41203498840332 10.30559349060059 C 8.727235794067383 10.62080383300781 8.727235794067383 11.13143444061279 8.41203498840332 11.44663429260254 L 6.561794281005859 13.29687404632568 L 8.41203498840332 15.14711380004883 C 8.727235794067383 15.46232414245605 8.727235794067383 15.97294425964355 8.41203498840332 16.28815460205078 C 8.254434585571289 16.44575500488281 8.047975540161133 16.52455520629883 7.841514587402344 16.52455520629883 M 11.87611484527588 2.000003814697266 L 11.87611484527588 24.5937442779541 L 21.55915451049805 24.5937442779541 C 22.89403533935547 24.5937442779541 23.97990417480469 23.50787353515625 23.97990417480469 22.17299461364746 L 23.97990417480469 4.420753479003906 C 23.97990417480469 3.085874557495117 22.89403533935547 2.000003814697266 21.55915451049805 2.000003814697266 L 11.87611484527588 2.000003814697266 M 5.420755386352539 3.814697265625e-06 L 10.26227569580078 3.814697265625e-06 C 10.54940605163574 3.814697265625e-06 10.82238388061523 0.0605010986328125 11.06919479370117 0.1694602966308594 C 11.31600666046143 0.0605010986328125 11.5889835357666 3.814697265625e-06 11.87611484527588 3.814697265625e-06 L 21.55915451049805 3.814697265625e-06 C 23.99676513671875 3.814697265625e-06 25.97990417480469 1.983144760131836 25.97990417480469 4.420753479003906 L 25.97990417480469 22.17299461364746 C 25.97990417480469 24.61060333251953 23.99676513671875 26.5937442779541 21.55915451049805 26.5937442779541 L 11.87611484527588 26.5937442779541 C 11.5889835357666 26.5937442779541 11.31600666046143 26.53324699401855 11.06919479370117 26.42428779602051 C 10.82238388061523 26.53324699401855 10.54940605163574 26.5937442779541 10.26227569580078 26.5937442779541 L 5.420755386352539 26.5937442779541 C 2.983135223388672 26.5937442779541 0.9999942779541016 24.61060333251953 0.9999942779541016 22.17299461364746 L 0.9999942779541016 4.420753479003906 C 0.9999942779541016 1.983144760131836 2.983135223388672 3.814697265625e-06 5.420755386352539 3.814697265625e-06 Z" stroke="none" fill="#2f2f2f"/>
  </g>
</svg>
