<svg id="Glyph" xmlns="http://www.w3.org/2000/svg" width="13.377" height="14.713" viewBox="0 0 13.377 14.713">
  <path id="Path_172" data-name="Path 172" d="M12.007,15H10.669a.669.669,0,0,0-.669.669v4.682h2.675V15.669A.669.669,0,0,0,12.007,15Z" transform="translate(-4.649 -5.638)" fill="#2f2f2f"/>
  <path id="Path_173" data-name="Path 173" d="M13.886,3.79,10.541,1.563a3.344,3.344,0,0,0-3.706,0L3.492,3.79A3.344,3.344,0,0,0,2,6.573v5.8a3.344,3.344,0,0,0,3.344,3.344h.669V11.034A2.007,2.007,0,0,1,8.02,9.027H9.358a2.007,2.007,0,0,1,2.007,2.007v4.682h.669a3.344,3.344,0,0,0,3.344-3.344v-5.8A3.344,3.344,0,0,0,13.886,3.79Z" transform="translate(-2 -1.003)" fill="#2f2f2f"/>
</svg>
