<svg id="Glyph" xmlns="http://www.w3.org/2000/svg" width="15.145" height="15.145" viewBox="0 0 15.145 15.145">
  <path id="Path_174" data-name="Path 174" d="M14.968,16.452a4.819,4.819,0,0,1-3.408,1.377H5.585a4.819,4.819,0,0,1-3.408-1.377L1,15.24v1.9a3.442,3.442,0,0,0,3.442,3.442H12.7a3.442,3.442,0,0,0,3.442-3.442v-1.9Z" transform="translate(-1 -5.437)" fill="#2f2f2f"/>
  <path id="Path_175" data-name="Path 175" d="M12.7,3.754V3.065A2.065,2.065,0,0,0,10.638,1H6.507A2.065,2.065,0,0,0,4.442,3.065v.688A3.442,3.442,0,0,0,1,7.2V8.572a.688.688,0,0,0,.2.489l1.948,1.948a3.442,3.442,0,0,0,2.437,1.005H11.56A3.442,3.442,0,0,0,14,11.009l1.948-1.948a.688.688,0,0,0,.2-.489V7.2A3.442,3.442,0,0,0,12.7,3.754ZM9.949,7.884H7.2a.688.688,0,1,1,0-1.377H9.949a.688.688,0,1,1,0,1.377Zm1.377-4.13H5.819V3.065a.688.688,0,0,1,.688-.688h4.13a.688.688,0,0,1,.688.688Z" transform="translate(-1 -1)" fill="#2f2f2f"/>
</svg>
