<svg xmlns="http://www.w3.org/2000/svg" width="16.294" height="15.165" viewBox="0 0 16.294 15.165">
  <g id="Webpage" transform="translate(-1.55 -2.551)">
    <circle id="Ellipse_115" data-name="Ellipse 115" cx="0.453" cy="0.453" r="0.453" transform="translate(3.854 4.388)" fill="#2f2f2f"/>
    <circle id="Ellipse_116" data-name="Ellipse 116" cx="0.453" cy="0.453" r="0.453" transform="translate(5.45 4.388)" fill="#2f2f2f"/>
    <circle id="Ellipse_117" data-name="Ellipse 117" cx="0.453" cy="0.453" r="0.453" transform="translate(7.047 4.388)" fill="#2f2f2f"/>
    <path id="Path_3767" data-name="Path 3767" d="M20.054,19.685l1.479,4.861a.506.506,0,0,0,.964.014l.692-2.055a.507.507,0,0,1,.318-.318l2.055-.692a.506.506,0,0,0-.014-.964l-4.861-1.479a.507.507,0,0,0-.632.632Z" transform="translate(-8.061 -7.188)" fill="#2f2f2f"/>
    <path id="Path_3768" data-name="Path 3768" d="M11.184,12.742a1.338,1.338,0,0,1,.206-1.2,1.348,1.348,0,0,1,1.481-.489l4.371,1.329V4.648a2.1,2.1,0,0,0-2.1-2.1H3.647a2.1,2.1,0,0,0-2.1,2.1v9.387a2.1,2.1,0,0,0,2.1,2.1h8.563ZM2.565,6.126V4.649A1.084,1.084,0,0,1,3.647,3.566h11.5a1.084,1.084,0,0,1,1.083,1.083V6.126Z" fill="#2f2f2f"/>
  </g>
</svg>
