<svg xmlns="http://www.w3.org/2000/svg" width="15.547" height="15.547" viewBox="0 0 15.547 15.547">
  <path id="Path_3766" data-name="Path 3766" d="M6.146,2A4.146,4.146,0,0,0,2,6.146V13.4a4.146,4.146,0,0,0,4.146,4.146H13.4A4.146,4.146,0,0,0,17.547,13.4V6.146A4.146,4.146,0,0,0,13.4,2ZM8.737,9.774a.518.518,0,0,1-.172.385L5.974,12.491a.518.518,0,1,1-.693-.77L7.444,9.774,5.281,7.827a.518.518,0,1,1,.693-.77L8.566,9.388a.518.518,0,0,1,.172.385Zm5.182,2.85a.518.518,0,1,0,0-1.036H9.774a.518.518,0,1,0,0,1.036Z" transform="translate(-2 -2)" fill="#2f2f2f" fill-rule="evenodd"/>
</svg>
