<svg id="Group_771" data-name="Group 771" xmlns="http://www.w3.org/2000/svg" width="15.894" height="14.305" viewBox="0 0 15.894 14.305">
  <g id="Group_765" data-name="Group 765">
    <path id="Path_3705" data-name="Path 3705" d="M16.3,14.126H3.589A1.63,1.63,0,0,1,2,12.536V4.589A1.63,1.63,0,0,1,3.589,3h7.152a.751.751,0,0,1,.795.795.751.751,0,0,1-.795.795H3.589v7.947H16.3V10.152a.795.795,0,1,1,1.589,0v2.384A1.63,1.63,0,0,1,16.3,14.126Z" transform="translate(-2 -3)" fill="#fff"/>
  </g>
  <g id="Group_766" data-name="Group 766" transform="translate(3.179 12.715)">
    <path id="Path_3706" data-name="Path 3706" d="M14.742,20.589H6.795a.795.795,0,0,1,0-1.589h7.947a.795.795,0,0,1,0,1.589Z" transform="translate(-6 -19)" fill="#fff"/>
  </g>
  <g id="Group_767" data-name="Group 767" transform="translate(4.768 9.536)">
    <path id="Path_3707" data-name="Path 3707" d="M8.795,19.768A.751.751,0,0,1,8,18.973V15.795A.751.751,0,0,1,8.795,15a.751.751,0,0,1,.795.795v3.179A.751.751,0,0,1,8.795,19.768Z" transform="translate(-8 -15)" fill="#fff"/>
  </g>
  <g id="Group_768" data-name="Group 768" transform="translate(9.536 9.536)">
    <path id="Path_3708" data-name="Path 3708" d="M14.795,19.768A.751.751,0,0,1,14,18.973V15.795a.795.795,0,1,1,1.589,0v3.179A.751.751,0,0,1,14.795,19.768Z" transform="translate(-14 -15)" fill="#fff"/>
  </g>
  <g id="Group_769" data-name="Group 769" transform="translate(11.126)">
    <path id="Path_3709" data-name="Path 3709" d="M19.973,7.768a.751.751,0,0,1-.795-.795V4.589H16.795A.751.751,0,0,1,16,3.795.751.751,0,0,1,16.795,3h3.179a.751.751,0,0,1,.795.795V6.973A.751.751,0,0,1,19.973,7.768Z" transform="translate(-16 -3)" fill="#fff"/>
  </g>
  <g id="Group_770" data-name="Group 770" transform="translate(10.331)">
    <path id="Path_3710" data-name="Path 3710" d="M15.795,8.563a.721.721,0,0,1-.556-.238.768.768,0,0,1,0-1.113l3.973-3.973a.787.787,0,0,1,1.113,1.113L16.351,8.324a.721.721,0,0,1-.556.238Z" transform="translate(-15 -3)" fill="#fff"/>
  </g>
</svg>
