<svg id="Group_472" data-name="Group 472" xmlns="http://www.w3.org/2000/svg" width="19.484" height="17.833" viewBox="0 0 19.484 17.833">
  <path id="Path_221" data-name="Path 221" d="M8.715,7.279A3.9,3.9,0,0,1,12.03,5a2.752,2.752,0,0,1,2.752,2.673c.129,4.582.129,7.848,0,12.487a2.752,2.752,0,0,1-2.752,2.673,3.888,3.888,0,0,1-3.31-2.281c-.053-.114-.107-.235-.157-.361H7.15a5.022,5.022,0,0,1-5.109-4.667,31.787,31.787,0,0,1,0-3.219A5.017,5.017,0,0,1,7.146,7.642H8.557C8.607,7.515,8.661,7.393,8.715,7.279Z" transform="translate(-2 -5)" fill="#fff"/>
  <path id="Path_222" data-name="Path 222" d="M50.373,11.2a.66.66,0,1,0-.941.927,8.3,8.3,0,0,1,0,11.622.66.66,0,1,0,.941.927A9.625,9.625,0,0,0,50.373,11.2Z" transform="translate(-33.642 -9.019)" fill="#fff"/>
  <path id="Path_223" data-name="Path 223" d="M44.131,17.53a.66.66,0,0,0-.941.927,5.316,5.316,0,0,1,0,7.439.66.66,0,0,0,.941.927A6.637,6.637,0,0,0,44.131,17.53Z" transform="translate(-29.46 -13.26)" fill="#fff"/>
</svg>
