<svg id="Group_477" data-name="Group 477" xmlns="http://www.w3.org/2000/svg" width="16.752" height="15.333" viewBox="0 0 16.752 15.333">
  <path id="Path_224" data-name="Path 224" d="M7.774,6.959A3.35,3.35,0,0,1,10.624,5a2.366,2.366,0,0,1,2.367,2.3c.111,3.94.111,6.747,0,10.736a2.366,2.366,0,0,1-2.366,2.3,3.343,3.343,0,0,1-2.846-1.961c-.046-.1-.092-.2-.135-.31H6.428a4.318,4.318,0,0,1-4.393-4.013,27.331,27.331,0,0,1,0-2.768,4.314,4.314,0,0,1,4.39-4.009H7.638c.043-.109.089-.214.135-.312Z" transform="translate(-2 -5)" fill="#fff"/>
  <path id="Path_225" data-name="Path 225" d="M43.969,23.166a.568.568,0,1,0-.8.8l1.586,1.586-1.586,1.586a.568.568,0,1,0,.8.8l1.586-1.586,1.586,1.586a.568.568,0,0,0,.8-.8l-1.586-1.586,1.586-1.586a.568.568,0,0,0-.8-.8l-1.586,1.586Z" transform="translate(-31.359 -17.889)" fill="#fff"/>
</svg>
