<svg xmlns="http://www.w3.org/2000/svg" width="41.221" height="17.153" viewBox="0 0 41.221 17.153">
  <g id="Group_308" data-name="Group 308" transform="translate(0 -149.482)">
    <path id="Path_163" data-name="Path 163" d="M414.853,199.67c0-2.931-1.42-5.244-4.134-5.244s-4.374,2.313-4.374,5.221c0,3.447,1.947,5.187,4.74,5.187a6.384,6.384,0,0,0,3.172-.744V201.8a6.08,6.08,0,0,1-2.805.63c-1.111,0-2.1-.389-2.221-1.74h5.6C414.83,200.54,414.853,199.945,414.853,199.67Zm-5.656-1.088c0-1.294.79-1.832,1.511-1.832.7,0,1.443.538,1.443,1.832Z" transform="translate(-373.631 -41.326)" fill="#635bff" fill-rule="evenodd"/>
    <path id="Path_164" data-name="Path 164" d="M295.341,194.426a3.234,3.234,0,0,0-2.244.893l-.149-.71h-2.519V207.96l2.863-.607.011-3.24a3.225,3.225,0,0,0,2.027.721c2.05,0,3.916-1.649,3.916-5.279C299.234,196.235,297.345,194.426,295.341,194.426Zm-.687,7.889a1.712,1.712,0,0,1-1.351-.538l-.011-4.248a1.7,1.7,0,0,1,1.363-.561c1.042,0,1.763,1.168,1.763,2.668C296.418,201.17,295.708,202.315,294.654,202.315Z" transform="translate(-267.047 -41.326)" fill="#635bff" fill-rule="evenodd"/>
    <path id="Path_165" data-name="Path 165" d="M241.5,152.425l2.874-.618v-2.324l-2.874.607Z" transform="translate(-222.06 0)" fill="#635bff" fill-rule="evenodd"/>
    <rect id="Rectangle_223" data-name="Rectangle 223" width="2.874" height="10.019" transform="translate(19.443 153.295)" fill="#635bff"/>
    <path id="Path_166" data-name="Path 166" d="M172.9,196.339l-.183-.847h-2.473v10.019h2.863v-6.79a2.019,2.019,0,0,1,2.176-.6v-2.634A1.944,1.944,0,0,0,172.9,196.339Z" transform="translate(-156.541 -42.197)" fill="#635bff" fill-rule="evenodd"/>
    <path id="Path_167" data-name="Path 167" d="M100.089,165.98l-2.794.6-.011,9.172a2.877,2.877,0,0,0,2.966,2.943,4.423,4.423,0,0,0,2-.378v-2.324c-.366.149-2.176.676-2.176-1.019V170.9h2.176v-2.439h-2.176Z" transform="translate(-89.452 -15.17)" fill="#635bff" fill-rule="evenodd"/>
    <path id="Path_168" data-name="Path 168" d="M2.9,197.529c0-.447.366-.618.973-.618a6.386,6.386,0,0,1,2.84.733v-2.691a7.552,7.552,0,0,0-2.84-.527c-2.324,0-3.87,1.214-3.87,3.24,0,3.16,4.351,2.656,4.351,4.019,0,.527-.458.7-1.1.7a7.128,7.128,0,0,1-3.126-.916v2.725a7.938,7.938,0,0,0,3.126.653c2.382,0,4.019-1.179,4.019-3.229C7.26,198.2,2.9,198.811,2.9,197.529Z" transform="translate(0 -41.326)" fill="#635bff" fill-rule="evenodd"/>
  </g>
</svg>
