<svg xmlns="http://www.w3.org/2000/svg" width="24.955" height="24.955" viewBox="0 0 24.955 24.955">
  <path id="Path_3672" data-name="Path 3672" d="M12.478,24.955A12.478,12.478,0,1,1,24.955,12.478,12.492,12.492,0,0,1,12.478,24.955Zm5.323-9.1H7.666l1.172-1.171a.891.891,0,1,0-1.26-1.26L4.884,16.118a.891.891,0,0,0,0,1.26l2.693,2.693a.891.891,0,1,0,1.26-1.26L7.666,17.639H17.8a.891.891,0,0,0,0-1.783ZM17.378,4.885a.891.891,0,0,0-1.26,1.26l1.171,1.172H6.61a.891.891,0,0,0,0,1.783H17.289l-1.171,1.172a.891.891,0,1,0,1.26,1.26l2.693-2.693a.891.891,0,0,0,0-1.26Z" fill="#17193f" fill-rule="evenodd"/>
</svg>
