<svg xmlns="http://www.w3.org/2000/svg" width="28.002" height="28" viewBox="0 0 28.002 28">
  <path id="Path_3685" data-name="Path 3685" d="M24.858,26.661a5.231,5.231,0,1,0-5.232-5.231A5.236,5.236,0,0,0,24.858,26.661Zm.123-15.09A13.42,13.42,0,0,1,34.843,34.1a11.072,11.072,0,0,0-3.751-4.669,10.947,10.947,0,0,0-6.232-2.057h-.008a10.941,10.941,0,0,0-6.149,2,11.1,11.1,0,0,0-3.754,4.542A13.422,13.422,0,0,1,24.981,11.571Zm9.9,3.529a14,14,0,1,1-9.9-4.1A13.908,13.908,0,0,1,34.881,15.1Z" transform="translate(-10.98 -11)" fill="#707070" fill-rule="evenodd"/>
</svg>
