<svg xmlns="http://www.w3.org/2000/svg" width="15.972" height="15.973" viewBox="0 0 15.972 15.973">
  <g id="Group_880" data-name="Group 880" transform="translate(-0.014)">
    <path id="Path_3782" data-name="Path 3782" d="M145.978,119.855a4.57,4.57,0,0,1,.339-.722,4.476,4.476,0,0,0-2.2,1.495,6.867,6.867,0,0,0,1.523.428A7.842,7.842,0,0,1,145.978,119.855Z" transform="translate(-139.61 -115.417)"/>
    <path id="Path_3783" data-name="Path 3783" d="M115.858,187.808a7.486,7.486,0,0,1-1.824-.533,4.427,4.427,0,0,0-.534,1.77h2.263C115.774,188.62,115.807,188.205,115.858,187.808Z" transform="translate(-109.945 -181.432)"/>
    <path id="Path_3784" data-name="Path 3784" d="M219.237,115.219a7.039,7.039,0,0,0-.293-1.038c-.272-.726-.628-1.176-.93-1.176s-.659.451-.931,1.176a7.037,7.037,0,0,0-.293,1.038c.393.039.8.06,1.224.06s.83-.021,1.223-.06Z" transform="translate(-210.014 -109.48)"/>
    <path id="Path_3785" data-name="Path 3785" d="M210.156,269.135a13,13,0,0,1,2.691,0c.046-.364.076-.744.087-1.135h-2.866C210.08,268.391,210.11,268.771,210.156,269.135Z" transform="translate(-203.502 -259.639)"/>
    <path id="Path_3786" data-name="Path 3786" d="M115.763,268H113.5a4.427,4.427,0,0,0,.535,1.77,7.488,7.488,0,0,1,1.824-.533C115.807,268.84,115.774,268.425,115.763,268Z" transform="translate(-109.945 -259.639)"/>
    <path id="Path_3787" data-name="Path 3787" d="M298.1,121.051a6.866,6.866,0,0,0,1.524-.428,4.475,4.475,0,0,0-2.2-1.495,4.571,4.571,0,0,1,.339.722,7.842,7.842,0,0,1,.335,1.2Z" transform="translate(-288.137 -115.412)"/>
    <path id="Path_3788" data-name="Path 3788" d="M212.847,207.653a13,13,0,0,1-2.691,0c-.046.363-.076.744-.087,1.134h2.866C212.923,208.4,212.894,208.016,212.847,207.653Z" transform="translate(-203.502 -201.174)"/>
    <path id="Path_3789" data-name="Path 3789" d="M216.794,326.2a7.032,7.032,0,0,0,.293,1.037c.272.725.629,1.176.931,1.176s.658-.451.93-1.176a7.041,7.041,0,0,0,.292-1.037c-.392-.039-.8-.06-1.223-.06S217.187,326.157,216.794,326.2Z" transform="translate(-210.017 -315.962)"/>
    <path id="Path_3790" data-name="Path 3790" d="M12.85,0h-9.7A3.14,3.14,0,0,0,.014,3.137v9.7a3.14,3.14,0,0,0,3.137,3.137h9.7a3.14,3.14,0,0,0,3.136-3.137v-9.7A3.14,3.14,0,0,0,12.85,0ZM8,13.2a5.21,5.21,0,1,1,5.21-5.21A5.216,5.216,0,0,1,8,13.2Z"/>
    <path id="Path_3791" data-name="Path 3791" d="M323,189.043h2.263a4.428,4.428,0,0,0-.534-1.77,7.486,7.486,0,0,1-1.824.533C322.956,188.2,322.989,188.619,323,189.043Z" transform="translate(-312.818 -181.431)"/>
    <path id="Path_3792" data-name="Path 3792" d="M297.773,332.476a4.569,4.569,0,0,1-.339.722,4.475,4.475,0,0,0,2.2-1.494,6.87,6.87,0,0,0-1.523-.427A7.842,7.842,0,0,1,297.773,332.476Z" transform="translate(-288.141 -320.942)"/>
    <path id="Path_3793" data-name="Path 3793" d="M145.66,331.278a6.87,6.87,0,0,0-1.523.427,4.476,4.476,0,0,0,2.2,1.494,4.566,4.566,0,0,1-.339-.722A7.833,7.833,0,0,1,145.66,331.278Z" transform="translate(-139.626 -320.944)"/>
    <path id="Path_3794" data-name="Path 3794" d="M322.9,269.237a7.488,7.488,0,0,1,1.824.533,4.428,4.428,0,0,0,.535-1.77H323C322.986,268.425,322.954,268.84,322.9,269.237Z" transform="translate(-312.816 -259.639)"/>
  </g>
</svg>
